<svg xmlns="http://www.w3.org/2000/svg" xmlns:xlink="http://www.w3.org/1999/xlink" id="processonSvg1000" viewBox="279.59999084472656 103.5999984741211 412.40000915527344 210.4000015258789" width="412.40000915527344" height="210.4000015258789"><defs id="ProcessOnDefs1001"><marker id="ProcessOnMarker1023" markerUnits="userSpaceOnUse" orient="auto" markerWidth="16.23606797749979" markerHeight="10.550836550532098" viewBox="-1.0 -1.3763819204711736 16.23606797749979 10.550836550532098" refX="-1.0" refY="3.8990363547948754"><path id="ProcessOnPath1024" d="M12.0 3.8990363547948754L0.0 7.798072709589751V0.0Z" stroke="#323232" stroke-width="2.0" fill="#323232" transform="matrix(1.0,0.0,0.0,1.0,0.0,0.0)"/></marker><marker id="ProcessOnMarker1030" markerUnits="userSpaceOnUse" orient="auto" markerWidth="16.23606797749979" markerHeight="10.550836550532098" viewBox="-1.0 -1.3763819204711736 16.23606797749979 10.550836550532098" refX="-1.0" refY="3.8990363547948754"><path id="ProcessOnPath1031" d="M12.0 3.8990363547948754L0.0 7.798072709589751V0.0Z" stroke="#323232" stroke-width="2.0" fill="#323232" transform="matrix(1.0,0.0,0.0,1.0,0.0,0.0)"/></marker><marker id="ProcessOnMarker1037" markerUnits="userSpaceOnUse" orient="auto" markerWidth="16.23606797749979" markerHeight="10.550836550532098" viewBox="-1.0 -1.3763819204711736 16.23606797749979 10.550836550532098" refX="-1.0" refY="3.8990363547948754"><path id="ProcessOnPath1038" d="M12.0 3.8990363547948754L0.0 7.798072709589751V0.0Z" stroke="#323232" stroke-width="2.0" fill="#323232" transform="matrix(1.0,0.0,0.0,1.0,0.0,0.0)"/></marker></defs><g id="ProcessOnG1002"><path id="ProcessOnPath1003" d="M279.59999084472656 103.5999984741211H692.0V314.0H279.59999084472656V103.5999984741211Z" fill="none"/><g id="ProcessOnG1004"><g id="ProcessOnG1005" transform="matrix(1.0,0.0,0.0,1.0,439.39998626708984,241.89999771118164)" opacity="1.0"><path id="ProcessOnPath1006" d="M0.0 0.0L80.40000915527344 0.0L80.40000915527344 52.10000228881836L0.0 52.10000228881836Z" stroke="#323232" stroke-width="2.0" stroke-dasharray="none" opacity="1.0" fill="#ffffff"/><g id="ProcessOnG1007" transform="matrix(1.0,0.0,0.0,1.0,10.0,17.30000114440918)"><text id="ProcessOnText1008" fill="#000000" font-size="14" x="29.20000457763672" y="14.350000000000001" font-family="宋体" font-weight="normal" font-style="normal" text-decoration="none" family="宋体" text-anchor="middle" size="14">主服务器</text></g></g><g id="ProcessOnG1009" transform="matrix(1.0,0.0,0.0,1.0,299.59999084472656,244.39999771118164)" opacity="1.0"><path id="ProcessOnPath1010" d="M0.0 0.0L78.40000915527344 0.0L78.40000915527344 48.400001525878906L0.0 48.400001525878906Z" stroke="#323232" stroke-width="2.0" stroke-dasharray="none" opacity="1.0" fill="#ffffff"/><g id="ProcessOnG1011" transform="matrix(1.0,0.0,0.0,1.0,10.0,15.450000762939453)"><text id="ProcessOnText1012" fill="#000000" font-size="14" x="28.20000457763672" y="14.350000000000001" font-family="宋体" font-weight="normal" font-style="normal" text-decoration="none" family="宋体" text-anchor="middle" size="14">从服务器</text></g></g><g id="ProcessOnG1013" transform="matrix(1.0,0.0,0.0,1.0,444.59999084472656,123.5999984741211)" opacity="1.0"><path id="ProcessOnPath1014" d="M0.0 35.0C0.0 -11.666666666666666 70.0 -11.666666666666666 70.0 35.0C70.0 81.66666666666667 0.0 81.66666666666667 0.0 35.0Z" stroke="#323232" stroke-width="2.0" stroke-dasharray="none" opacity="1.0" fill="#ffffff"/><g id="ProcessOnG1015" transform="matrix(1.0,0.0,0.0,1.0,10.0,26.25)"><text id="ProcessOnText1016" fill="#000000" font-size="14" x="24.0" y="14.350000000000001" font-family="宋体" font-weight="normal" font-style="normal" text-decoration="none" family="宋体" text-anchor="middle" size="14">客户端</text></g></g><g id="ProcessOnG1017" transform="matrix(1.0,0.0,0.0,1.0,593.0,244.39999771118164)" opacity="1.0"><path id="ProcessOnPath1018" d="M0.0 0.0L79.0 0.0L79.0 47.10000228881836L0.0 47.10000228881836Z" stroke="#323232" stroke-width="2.0" stroke-dasharray="none" opacity="1.0" fill="#ffffff"/><g id="ProcessOnG1019" transform="matrix(1.0,0.0,0.0,1.0,10.0,14.80000114440918)"><text id="ProcessOnText1020" fill="#000000" font-size="14" x="28.5" y="14.350000000000001" font-family="宋体" font-weight="normal" font-style="normal" text-decoration="none" family="宋体" text-anchor="middle" size="14">从服务器</text></g></g><g id="ProcessOnG1021"><path id="ProcessOnPath1022" d="M479.59999084472656 193.5999984741211L479.59999084472656 217.74999809265137L479.59999084472656 217.74999809265137L479.59999084472656 226.66392973368184" stroke="#323232" stroke-width="2.0" stroke-dasharray="none" fill="none" marker-end="url(#ProcessOnMarker1023)"/><g id="ProcessOnG1025" transform="matrix(1.0,0.0,0.0,1.0,479.59999084472656,201.38196410390145)"><path id="ProcessOnPath1026" d="M0 0H28.0V17.5H0Z" fill="#fff" transform="matrix(1.0,0.0,0.0,1.0,-14.0,0.0)"/><text id="ProcessOnText1027" fill="#000000" font-size="14" x="0.0" y="14.350000000000001" font-family="宋体" font-weight="normal" font-style="normal" text-decoration="none" family="宋体" text-anchor="middle" size="14">更新</text></g></g><g id="ProcessOnG1028"><path id="ProcessOnPath1029" d="M519.7999954223633 267.9499988555908L556.3999977111816 267.9499988555908L556.3999977111816 267.9499988555908L577.7639320225002 267.9499988555908" stroke="#323232" stroke-width="2.0" stroke-dasharray="none" fill="none" marker-end="url(#ProcessOnMarker1030)"/><g id="ProcessOnG1032" transform="matrix(1.0,0.0,0.0,1.0,548.7819637224318,259.1999988555908)"><path id="ProcessOnPath1033" d="M0 0H28.0V17.5H0Z" fill="#fff" transform="matrix(1.0,0.0,0.0,1.0,-14.0,0.0)"/><text id="ProcessOnText1034" fill="#000000" font-size="14" x="0.0" y="14.350000000000001" font-family="宋体" font-weight="normal" font-style="normal" text-decoration="none" family="宋体" text-anchor="middle" size="14">复制</text></g></g><g id="ProcessOnG1035"><path id="ProcessOnPath1036" d="M439.39998626708984 267.9499988555908L408.6999931335449 267.9499988555908L408.6999931335449 268.5999984741211L393.2360679774998 268.5999984741211" stroke="#323232" stroke-width="2.0" stroke-dasharray="none" fill="none" marker-end="url(#ProcessOnMarker1037)"/><g id="ProcessOnG1039" transform="matrix(1.0,0.0,0.0,1.0,415.99302731302964,259.1999988555908)"><path id="ProcessOnPath1040" d="M0 0H28.0V17.5H0Z" fill="#fff" transform="matrix(1.0,0.0,0.0,1.0,-14.0,0.0)"/><text id="ProcessOnText1041" fill="#000000" font-size="14" x="0.0" y="14.350000000000001" font-family="宋体" font-weight="normal" font-style="normal" text-decoration="none" family="宋体" text-anchor="middle" size="14">复制</text></g></g></g></g></svg>