<?xml version="1.0" encoding="UTF-8" standalone="no"?>
<svg
   xmlns:dc="http://purl.org/dc/elements/1.1/"
   xmlns:cc="http://creativecommons.org/ns#"
   xmlns:rdf="http://www.w3.org/1999/02/22-rdf-syntax-ns#"
   xmlns:svg="http://www.w3.org/2000/svg"
   xmlns="http://www.w3.org/2000/svg"
   xmlns:sodipodi="http://sodipodi.sourceforge.net/DTD/sodipodi-0.dtd"
   xmlns:inkscape="http://www.inkscape.org/namespaces/inkscape"
   id="processonSvg1000"
   viewBox="129.875 50.80000305175781 585.9250030517578 399.1999969482422"
   width="585.9250030517578"
   height="399.1999969482422"
   version="1.1"
   sodipodi:docname="分布式原理.svg"
   inkscape:version="0.92.2 (5c3e80d, 2017-08-06)">
  <metadata
     id="metadata2968">
    <rdf:RDF>
      <cc:Work
         rdf:about="">
        <dc:format>image/svg+xml</dc:format>
        <dc:type
           rdf:resource="http://purl.org/dc/dcmitype/StillImage" />
      </cc:Work>
    </rdf:RDF>
  </metadata>
  <sodipodi:namedview
     pagecolor="#ffffff"
     bordercolor="#666666"
     borderopacity="1"
     objecttolerance="10"
     gridtolerance="10"
     guidetolerance="10"
     inkscape:pageopacity="0"
     inkscape:pageshadow="2"
     inkscape:window-width="1920"
     inkscape:window-height="1001"
     id="namedview2966"
     showgrid="false"
     inkscape:zoom="1.1823647"
     inkscape:cx="461.9889"
     inkscape:cy="122.94326"
     inkscape:window-x="-9"
     inkscape:window-y="-9"
     inkscape:window-maximized="1"
     inkscape:current-layer="ProcessOnG1035" />
  <defs
     id="ProcessOnDefs1001">
    <marker
       id="ProcessOnMarker1047"
       markerUnits="userSpaceOnUse"
       orient="auto"
       markerWidth="16.23606797749979"
       markerHeight="10.550836550532098"
       viewBox="-1.0 -1.3763819204711736 16.23606797749979 10.550836550532098"
       refX="-1.0"
       refY="3.8990363547948754">
      <path
         id="ProcessOnPath1048"
         d="M12.0 3.8990363547948754L0.0 7.798072709589751V0.0Z"
         stroke="#323232"
         stroke-width="2.0"
         fill="#323232"
         transform="matrix(1.0,0.0,0.0,1.0,0.0,0.0)" />
    </marker>
    <marker
       id="ProcessOnMarker1060"
       markerUnits="userSpaceOnUse"
       orient="auto"
       markerWidth="16.23606797749979"
       markerHeight="10.550836550532098"
       viewBox="-1.0 -1.3763819204711736 16.23606797749979 10.550836550532098"
       refX="-1.0"
       refY="3.8990363547948754">
      <path
         id="ProcessOnPath1061"
         d="M12.0 3.8990363547948754L0.0 7.798072709589751V0.0Z"
         stroke="#323232"
         stroke-width="2.0"
         fill="#323232"
         transform="matrix(1.0,0.0,0.0,1.0,0.0,0.0)" />
    </marker>
    <marker
       id="ProcessOnMarker1071"
       markerUnits="userSpaceOnUse"
       orient="auto"
       markerWidth="16.23606797749979"
       markerHeight="10.550836550532098"
       viewBox="-1.0 -1.3763819204711736 16.23606797749979 10.550836550532098"
       refX="-1.0"
       refY="3.8990363547948754">
      <path
         id="ProcessOnPath1072"
         d="M12.0 3.8990363547948754L0.0 7.798072709589751V0.0Z"
         stroke="#323232"
         stroke-width="2.0"
         fill="#323232"
         transform="matrix(1.0,0.0,0.0,1.0,0.0,0.0)" />
    </marker>
    <marker
       id="ProcessOnMarker1075"
       markerUnits="userSpaceOnUse"
       orient="auto"
       markerWidth="16.23606797749979"
       markerHeight="10.550836550532098"
       viewBox="-1.0 -1.3763819204711736 16.23606797749979 10.550836550532098"
       refX="-1.0"
       refY="3.8990363547948754">
      <path
         id="ProcessOnPath1076"
         d="M12.0 3.8990363547948754L0.0 7.798072709589751V0.0Z"
         stroke="#323232"
         stroke-width="2.0"
         fill="#323232"
         transform="matrix(1.0,0.0,0.0,1.0,0.0,0.0)" />
    </marker>
  </defs>
  <g
     id="ProcessOnG1002">
    <path
       id="ProcessOnPath1003"
       d="M129.875 50.80000305175781H715.8000030517578V450.0H129.875V50.80000305175781Z"
       fill="none" />
    <g
       id="ProcessOnG1004">
      <g
         id="ProcessOnG1005"
         transform="matrix(1.0,0.0,0.0,1.0,328.375,191.25)"
         opacity="1.0">
        <g
           id="ProcessOnG1007"
           transform="matrix(1.0,0.0,0.0,1.0,0.0,0.0)">
          <g
             id="g2679">
            <path
               fill="#1E3947"
               d="M33.279,80H2.716C1.197,80,0,78.795,0,77.283V2.718C0,1.197,1.197,0,2.716,0h30.563 C34.793,0,36,1.197,36,2.718v74.565C36,78.705,34.793,80,33.279,80z"
               id="path2607" />
            <rect
               x="0.081"
               y="6.398"
               fill="#DCE9F7"
               width="35.919"
               height="0.884"
               id="rect2609" />
            <rect
               x="0.081"
               y="69.518"
               fill="#DCE9F7"
               width="35.918"
               height="0.884"
               id="rect2611" />
            <rect
               y="51.126"
               fill="#1A6684"
               width="36"
               height="0.481"
               id="rect2613" />
            <g
               id="g2623">
              <rect
                 x="5.2"
                 y="11.68"
                 fill="#236A8E"
                 width="25.751"
                 height="3.119"
                 id="rect2615" />
              <rect
                 x="5.2"
                 y="15.608"
                 fill="#236A8E"
                 width="25.751"
                 height="3.114"
                 id="rect2617" />
              <rect
                 x="5.833"
                 y="12.877"
                 fill="#DCE9F7"
                 width="4.648"
                 height="0.966"
                 id="rect2619" />
              <rect
                 x="5.833"
                 y="16.72"
                 fill="#DCE9F7"
                 width="4.648"
                 height="0.953"
                 id="rect2621" />
            </g>
            <g
               id="g2633">
              <rect
                 x="5.2"
                 y="20.642"
                 fill="#236A8E"
                 width="25.751"
                 height="3.121"
                 id="rect2625" />
              <rect
                 x="5.2"
                 y="24.557"
                 fill="#236A8E"
                 width="25.751"
                 height="3.116"
                 id="rect2627" />
              <rect
                 x="5.833"
                 y="21.841"
                 fill="#DCE9F7"
                 width="4.648"
                 height="0.956"
                 id="rect2629" />
              <rect
                 x="5.833"
                 y="25.687"
                 fill="#DCE9F7"
                 width="4.648"
                 height="0.953"
                 id="rect2631" />
            </g>
            <g
               id="g2643">
              <rect
                 x="5.2"
                 y="31.277"
                 fill="#236A8E"
                 width="25.751"
                 height="3.114"
                 id="rect2635" />
              <rect
                 x="5.2"
                 y="35.201"
                 fill="#236A8E"
                 width="25.751"
                 height="3.119"
                 id="rect2637" />
              <rect
                 x="5.833"
                 y="32.483"
                 fill="#DCE9F7"
                 width="4.648"
                 height="0.957"
                 id="rect2639" />
              <rect
                 x="5.833"
                 y="36.318"
                 fill="#DCE9F7"
                 width="4.648"
                 height="0.964"
                 id="rect2641" />
            </g>
            <path
               opacity="0.62"
               fill="#FF466A"
               enable-background="new "
               d="M31.675,72.958c0.734,0,1.358,0.604,1.358,1.367 c0,0.744-0.624,1.349-1.358,1.349c-0.738,0-1.363-0.604-1.363-1.349C30.312,73.563,30.937,72.958,31.675,72.958z"
               id="path2645" />
            <path
               opacity="0.62"
               fill="#43D190"
               enable-background="new "
               d="M26.629,72.958c0.759,0,1.364,0.604,1.364,1.367 c0,0.744-0.605,1.349-1.364,1.349c-0.746,0-1.352-0.604-1.352-1.349C25.277,73.563,25.883,72.958,26.629,72.958z"
               id="path2647" />
            <g
               id="g2677">
              <rect
                 x="2.716"
                 y="52.233"
                 fill="#041323"
                 width="1.36"
                 height="16.405"
                 id="rect2649" />
              <rect
                 x="4.959"
                 y="52.233"
                 fill="#041323"
                 width="1.358"
                 height="16.405"
                 id="rect2651" />
              <rect
                 x="7.122"
                 y="52.233"
                 fill="#041323"
                 width="1.358"
                 height="16.405"
                 id="rect2653" />
              <rect
                 x="9.353"
                 y="52.233"
                 fill="#041323"
                 width="1.363"
                 height="16.405"
                 id="rect2655" />
              <rect
                 x="11.517"
                 y="52.233"
                 fill="#041323"
                 width="1.358"
                 height="16.405"
                 id="rect2657" />
              <rect
                 x="13.76"
                 y="52.233"
                 fill="#041323"
                 width="1.358"
                 height="16.405"
                 id="rect2659" />
              <rect
                 x="15.911"
                 y="52.233"
                 fill="#041323"
                 width="1.366"
                 height="16.405"
                 id="rect2661" />
              <rect
                 x="18.156"
                 y="52.233"
                 fill="#041323"
                 width="1.376"
                 height="16.405"
                 id="rect2663" />
              <rect
                 x="20.38"
                 y="52.233"
                 fill="#041323"
                 width="1.377"
                 height="16.405"
                 id="rect2665" />
              <rect
                 x="22.562"
                 y="52.233"
                 fill="#041323"
                 width="1.349"
                 height="16.405"
                 id="rect2667" />
              <rect
                 x="24.795"
                 y="52.233"
                 fill="#041323"
                 width="1.365"
                 height="16.405"
                 id="rect2669" />
              <rect
                 x="26.941"
                 y="52.233"
                 fill="#041323"
                 width="1.374"
                 height="16.405"
                 id="rect2671" />
              <rect
                 x="29.2"
                 y="52.233"
                 fill="#041323"
                 width="1.349"
                 height="16.405"
                 id="rect2673" />
              <rect
                 x="31.434"
                 y="52.233"
                 fill="#041323"
                 width="1.378"
                 height="16.405"
                 id="rect2675" />
            </g>
          </g>
        </g>
      </g>
      <g
         id="ProcessOnG1008"
         transform="matrix(1.0,0.0,0.0,1.0,457.0,191.25)"
         opacity="1.0">
        <g
           id="ProcessOnG1010"
           transform="matrix(1.0,0.0,0.0,1.0,0.0,0.0)">
          <g
             id="g2755">
            <path
               fill="#1E3947"
               d="M33.279,80H2.716C1.197,80,0,78.795,0,77.283V2.718C0,1.197,1.197,0,2.716,0h30.563 C34.793,0,36,1.197,36,2.718v74.565C36,78.705,34.793,80,33.279,80z"
               id="path2683" />
            <rect
               x="0.081"
               y="6.398"
               fill="#DCE9F7"
               width="35.919"
               height="0.884"
               id="rect2685" />
            <rect
               x="0.081"
               y="69.518"
               fill="#DCE9F7"
               width="35.918"
               height="0.884"
               id="rect2687" />
            <rect
               y="51.126"
               fill="#1A6684"
               width="36"
               height="0.481"
               id="rect2689" />
            <g
               id="g2699">
              <rect
                 x="5.2"
                 y="11.68"
                 fill="#236A8E"
                 width="25.751"
                 height="3.119"
                 id="rect2691" />
              <rect
                 x="5.2"
                 y="15.608"
                 fill="#236A8E"
                 width="25.751"
                 height="3.114"
                 id="rect2693" />
              <rect
                 x="5.833"
                 y="12.877"
                 fill="#DCE9F7"
                 width="4.648"
                 height="0.966"
                 id="rect2695" />
              <rect
                 x="5.833"
                 y="16.72"
                 fill="#DCE9F7"
                 width="4.648"
                 height="0.953"
                 id="rect2697" />
            </g>
            <g
               id="g2709">
              <rect
                 x="5.2"
                 y="20.642"
                 fill="#236A8E"
                 width="25.751"
                 height="3.121"
                 id="rect2701" />
              <rect
                 x="5.2"
                 y="24.557"
                 fill="#236A8E"
                 width="25.751"
                 height="3.116"
                 id="rect2703" />
              <rect
                 x="5.833"
                 y="21.841"
                 fill="#DCE9F7"
                 width="4.648"
                 height="0.956"
                 id="rect2705" />
              <rect
                 x="5.833"
                 y="25.687"
                 fill="#DCE9F7"
                 width="4.648"
                 height="0.953"
                 id="rect2707" />
            </g>
            <g
               id="g2719">
              <rect
                 x="5.2"
                 y="31.277"
                 fill="#236A8E"
                 width="25.751"
                 height="3.114"
                 id="rect2711" />
              <rect
                 x="5.2"
                 y="35.201"
                 fill="#236A8E"
                 width="25.751"
                 height="3.119"
                 id="rect2713" />
              <rect
                 x="5.833"
                 y="32.483"
                 fill="#DCE9F7"
                 width="4.648"
                 height="0.957"
                 id="rect2715" />
              <rect
                 x="5.833"
                 y="36.318"
                 fill="#DCE9F7"
                 width="4.648"
                 height="0.964"
                 id="rect2717" />
            </g>
            <path
               opacity="0.62"
               fill="#FF466A"
               enable-background="new "
               d="M31.675,72.958c0.734,0,1.358,0.604,1.358,1.367 c0,0.744-0.624,1.349-1.358,1.349c-0.738,0-1.363-0.604-1.363-1.349C30.312,73.563,30.937,72.958,31.675,72.958z"
               id="path2721" />
            <path
               opacity="0.62"
               fill="#43D190"
               enable-background="new "
               d="M26.629,72.958c0.759,0,1.364,0.604,1.364,1.367 c0,0.744-0.605,1.349-1.364,1.349c-0.746,0-1.352-0.604-1.352-1.349C25.277,73.563,25.883,72.958,26.629,72.958z"
               id="path2723" />
            <g
               id="g2753">
              <rect
                 x="2.716"
                 y="52.233"
                 fill="#041323"
                 width="1.36"
                 height="16.405"
                 id="rect2725" />
              <rect
                 x="4.959"
                 y="52.233"
                 fill="#041323"
                 width="1.358"
                 height="16.405"
                 id="rect2727" />
              <rect
                 x="7.122"
                 y="52.233"
                 fill="#041323"
                 width="1.358"
                 height="16.405"
                 id="rect2729" />
              <rect
                 x="9.353"
                 y="52.233"
                 fill="#041323"
                 width="1.363"
                 height="16.405"
                 id="rect2731" />
              <rect
                 x="11.517"
                 y="52.233"
                 fill="#041323"
                 width="1.358"
                 height="16.405"
                 id="rect2733" />
              <rect
                 x="13.76"
                 y="52.233"
                 fill="#041323"
                 width="1.358"
                 height="16.405"
                 id="rect2735" />
              <rect
                 x="15.911"
                 y="52.233"
                 fill="#041323"
                 width="1.366"
                 height="16.405"
                 id="rect2737" />
              <rect
                 x="18.156"
                 y="52.233"
                 fill="#041323"
                 width="1.376"
                 height="16.405"
                 id="rect2739" />
              <rect
                 x="20.38"
                 y="52.233"
                 fill="#041323"
                 width="1.377"
                 height="16.405"
                 id="rect2741" />
              <rect
                 x="22.562"
                 y="52.233"
                 fill="#041323"
                 width="1.349"
                 height="16.405"
                 id="rect2743" />
              <rect
                 x="24.795"
                 y="52.233"
                 fill="#041323"
                 width="1.365"
                 height="16.405"
                 id="rect2745" />
              <rect
                 x="26.941"
                 y="52.233"
                 fill="#041323"
                 width="1.374"
                 height="16.405"
                 id="rect2747" />
              <rect
                 x="29.2"
                 y="52.233"
                 fill="#041323"
                 width="1.349"
                 height="16.405"
                 id="rect2749" />
              <rect
                 x="31.434"
                 y="52.233"
                 fill="#041323"
                 width="1.378"
                 height="16.405"
                 id="rect2751" />
            </g>
          </g>
        </g>
      </g>
      <g
         id="ProcessOnG1011"
         transform="matrix(1.0,0.0,0.0,1.0,590.875,191.25)"
         opacity="1.0">
        <g
           id="ProcessOnG1013"
           transform="matrix(1.0,0.0,0.0,1.0,0.0,0.0)">
          <g
             id="g2831">
            <path
               fill="#1E3947"
               d="M33.279,80H2.716C1.197,80,0,78.795,0,77.283V2.718C0,1.197,1.197,0,2.716,0h30.563 C34.793,0,36,1.197,36,2.718v74.565C36,78.705,34.793,80,33.279,80z"
               id="path2759" />
            <rect
               x="0.081"
               y="6.398"
               fill="#DCE9F7"
               width="35.919"
               height="0.884"
               id="rect2761" />
            <rect
               x="0.081"
               y="69.518"
               fill="#DCE9F7"
               width="35.918"
               height="0.884"
               id="rect2763" />
            <rect
               y="51.126"
               fill="#1A6684"
               width="36"
               height="0.481"
               id="rect2765" />
            <g
               id="g2775">
              <rect
                 x="5.2"
                 y="11.68"
                 fill="#236A8E"
                 width="25.751"
                 height="3.119"
                 id="rect2767" />
              <rect
                 x="5.2"
                 y="15.608"
                 fill="#236A8E"
                 width="25.751"
                 height="3.114"
                 id="rect2769" />
              <rect
                 x="5.833"
                 y="12.877"
                 fill="#DCE9F7"
                 width="4.648"
                 height="0.966"
                 id="rect2771" />
              <rect
                 x="5.833"
                 y="16.72"
                 fill="#DCE9F7"
                 width="4.648"
                 height="0.953"
                 id="rect2773" />
            </g>
            <g
               id="g2785">
              <rect
                 x="5.2"
                 y="20.642"
                 fill="#236A8E"
                 width="25.751"
                 height="3.121"
                 id="rect2777" />
              <rect
                 x="5.2"
                 y="24.557"
                 fill="#236A8E"
                 width="25.751"
                 height="3.116"
                 id="rect2779" />
              <rect
                 x="5.833"
                 y="21.841"
                 fill="#DCE9F7"
                 width="4.648"
                 height="0.956"
                 id="rect2781" />
              <rect
                 x="5.833"
                 y="25.687"
                 fill="#DCE9F7"
                 width="4.648"
                 height="0.953"
                 id="rect2783" />
            </g>
            <g
               id="g2795">
              <rect
                 x="5.2"
                 y="31.277"
                 fill="#236A8E"
                 width="25.751"
                 height="3.114"
                 id="rect2787" />
              <rect
                 x="5.2"
                 y="35.201"
                 fill="#236A8E"
                 width="25.751"
                 height="3.119"
                 id="rect2789" />
              <rect
                 x="5.833"
                 y="32.483"
                 fill="#DCE9F7"
                 width="4.648"
                 height="0.957"
                 id="rect2791" />
              <rect
                 x="5.833"
                 y="36.318"
                 fill="#DCE9F7"
                 width="4.648"
                 height="0.964"
                 id="rect2793" />
            </g>
            <path
               opacity="0.62"
               fill="#FF466A"
               enable-background="new "
               d="M31.675,72.958c0.734,0,1.358,0.604,1.358,1.367 c0,0.744-0.624,1.349-1.358,1.349c-0.738,0-1.363-0.604-1.363-1.349C30.312,73.563,30.937,72.958,31.675,72.958z"
               id="path2797" />
            <path
               opacity="0.62"
               fill="#43D190"
               enable-background="new "
               d="M26.629,72.958c0.759,0,1.364,0.604,1.364,1.367 c0,0.744-0.605,1.349-1.364,1.349c-0.746,0-1.352-0.604-1.352-1.349C25.277,73.563,25.883,72.958,26.629,72.958z"
               id="path2799" />
            <g
               id="g2829">
              <rect
                 x="2.716"
                 y="52.233"
                 fill="#041323"
                 width="1.36"
                 height="16.405"
                 id="rect2801" />
              <rect
                 x="4.959"
                 y="52.233"
                 fill="#041323"
                 width="1.358"
                 height="16.405"
                 id="rect2803" />
              <rect
                 x="7.122"
                 y="52.233"
                 fill="#041323"
                 width="1.358"
                 height="16.405"
                 id="rect2805" />
              <rect
                 x="9.353"
                 y="52.233"
                 fill="#041323"
                 width="1.363"
                 height="16.405"
                 id="rect2807" />
              <rect
                 x="11.517"
                 y="52.233"
                 fill="#041323"
                 width="1.358"
                 height="16.405"
                 id="rect2809" />
              <rect
                 x="13.76"
                 y="52.233"
                 fill="#041323"
                 width="1.358"
                 height="16.405"
                 id="rect2811" />
              <rect
                 x="15.911"
                 y="52.233"
                 fill="#041323"
                 width="1.366"
                 height="16.405"
                 id="rect2813" />
              <rect
                 x="18.156"
                 y="52.233"
                 fill="#041323"
                 width="1.376"
                 height="16.405"
                 id="rect2815" />
              <rect
                 x="20.38"
                 y="52.233"
                 fill="#041323"
                 width="1.377"
                 height="16.405"
                 id="rect2817" />
              <rect
                 x="22.562"
                 y="52.233"
                 fill="#041323"
                 width="1.349"
                 height="16.405"
                 id="rect2819" />
              <rect
                 x="24.795"
                 y="52.233"
                 fill="#041323"
                 width="1.365"
                 height="16.405"
                 id="rect2821" />
              <rect
                 x="26.941"
                 y="52.233"
                 fill="#041323"
                 width="1.374"
                 height="16.405"
                 id="rect2823" />
              <rect
                 x="29.2"
                 y="52.233"
                 fill="#041323"
                 width="1.349"
                 height="16.405"
                 id="rect2825" />
              <rect
                 x="31.434"
                 y="52.233"
                 fill="#041323"
                 width="1.378"
                 height="16.405"
                 id="rect2827" />
            </g>
          </g>
        </g>
      </g>
      <g
         id="ProcessOnG1014"
         transform="matrix(1.0,0.0,0.0,1.0,189.375,191.25)"
         opacity="1.0">
        <g
           id="ProcessOnG1016"
           transform="matrix(1.0,0.0,0.0,1.0,0.0,0.0)">
          <g
             id="g2907">
            <path
               fill="#1E3947"
               d="M33.279,80H2.716C1.197,80,0,78.795,0,77.283V2.718C0,1.197,1.197,0,2.716,0h30.563 C34.793,0,36,1.197,36,2.718v74.565C36,78.705,34.793,80,33.279,80z"
               id="path2835" />
            <rect
               x="0.081"
               y="6.398"
               fill="#DCE9F7"
               width="35.919"
               height="0.884"
               id="rect2837" />
            <rect
               x="0.081"
               y="69.518"
               fill="#DCE9F7"
               width="35.918"
               height="0.884"
               id="rect2839" />
            <rect
               y="51.126"
               fill="#1A6684"
               width="36"
               height="0.481"
               id="rect2841" />
            <g
               id="g2851">
              <rect
                 x="5.2"
                 y="11.68"
                 fill="#236A8E"
                 width="25.751"
                 height="3.119"
                 id="rect2843" />
              <rect
                 x="5.2"
                 y="15.608"
                 fill="#236A8E"
                 width="25.751"
                 height="3.114"
                 id="rect2845" />
              <rect
                 x="5.833"
                 y="12.877"
                 fill="#DCE9F7"
                 width="4.648"
                 height="0.966"
                 id="rect2847" />
              <rect
                 x="5.833"
                 y="16.72"
                 fill="#DCE9F7"
                 width="4.648"
                 height="0.953"
                 id="rect2849" />
            </g>
            <g
               id="g2861">
              <rect
                 x="5.2"
                 y="20.642"
                 fill="#236A8E"
                 width="25.751"
                 height="3.121"
                 id="rect2853" />
              <rect
                 x="5.2"
                 y="24.557"
                 fill="#236A8E"
                 width="25.751"
                 height="3.116"
                 id="rect2855" />
              <rect
                 x="5.833"
                 y="21.841"
                 fill="#DCE9F7"
                 width="4.648"
                 height="0.956"
                 id="rect2857" />
              <rect
                 x="5.833"
                 y="25.687"
                 fill="#DCE9F7"
                 width="4.648"
                 height="0.953"
                 id="rect2859" />
            </g>
            <g
               id="g2871">
              <rect
                 x="5.2"
                 y="31.277"
                 fill="#236A8E"
                 width="25.751"
                 height="3.114"
                 id="rect2863" />
              <rect
                 x="5.2"
                 y="35.201"
                 fill="#236A8E"
                 width="25.751"
                 height="3.119"
                 id="rect2865" />
              <rect
                 x="5.833"
                 y="32.483"
                 fill="#DCE9F7"
                 width="4.648"
                 height="0.957"
                 id="rect2867" />
              <rect
                 x="5.833"
                 y="36.318"
                 fill="#DCE9F7"
                 width="4.648"
                 height="0.964"
                 id="rect2869" />
            </g>
            <path
               opacity="0.62"
               fill="#FF466A"
               enable-background="new "
               d="M31.675,72.958c0.734,0,1.358,0.604,1.358,1.367 c0,0.744-0.624,1.349-1.358,1.349c-0.738,0-1.363-0.604-1.363-1.349C30.312,73.563,30.937,72.958,31.675,72.958z"
               id="path2873" />
            <path
               opacity="0.62"
               fill="#43D190"
               enable-background="new "
               d="M26.629,72.958c0.759,0,1.364,0.604,1.364,1.367 c0,0.744-0.605,1.349-1.364,1.349c-0.746,0-1.352-0.604-1.352-1.349C25.277,73.563,25.883,72.958,26.629,72.958z"
               id="path2875" />
            <g
               id="g2905">
              <rect
                 x="2.716"
                 y="52.233"
                 fill="#041323"
                 width="1.36"
                 height="16.405"
                 id="rect2877" />
              <rect
                 x="4.959"
                 y="52.233"
                 fill="#041323"
                 width="1.358"
                 height="16.405"
                 id="rect2879" />
              <rect
                 x="7.122"
                 y="52.233"
                 fill="#041323"
                 width="1.358"
                 height="16.405"
                 id="rect2881" />
              <rect
                 x="9.353"
                 y="52.233"
                 fill="#041323"
                 width="1.363"
                 height="16.405"
                 id="rect2883" />
              <rect
                 x="11.517"
                 y="52.233"
                 fill="#041323"
                 width="1.358"
                 height="16.405"
                 id="rect2885" />
              <rect
                 x="13.76"
                 y="52.233"
                 fill="#041323"
                 width="1.358"
                 height="16.405"
                 id="rect2887" />
              <rect
                 x="15.911"
                 y="52.233"
                 fill="#041323"
                 width="1.366"
                 height="16.405"
                 id="rect2889" />
              <rect
                 x="18.156"
                 y="52.233"
                 fill="#041323"
                 width="1.376"
                 height="16.405"
                 id="rect2891" />
              <rect
                 x="20.38"
                 y="52.233"
                 fill="#041323"
                 width="1.377"
                 height="16.405"
                 id="rect2893" />
              <rect
                 x="22.562"
                 y="52.233"
                 fill="#041323"
                 width="1.349"
                 height="16.405"
                 id="rect2895" />
              <rect
                 x="24.795"
                 y="52.233"
                 fill="#041323"
                 width="1.365"
                 height="16.405"
                 id="rect2897" />
              <rect
                 x="26.941"
                 y="52.233"
                 fill="#041323"
                 width="1.374"
                 height="16.405"
                 id="rect2899" />
              <rect
                 x="29.2"
                 y="52.233"
                 fill="#041323"
                 width="1.349"
                 height="16.405"
                 id="rect2901" />
              <rect
                 x="31.434"
                 y="52.233"
                 fill="#041323"
                 width="1.378"
                 height="16.405"
                 id="rect2903" />
            </g>
          </g>
        </g>
      </g>
      <g
         id="ProcessOnG1017"
         transform="matrix(1.0,0.0,0.0,1.0,149.875,153.25)"
         opacity="1.0">
        <path
           id="ProcessOnPath1018"
           d="M0.0 0.0L131.0 0.0L131.0 33.0L0.0 33.0Z"
           stroke="none"
           stroke-width="0.0"
           stroke-dasharray="none"
           opacity="1.0"
           fill="none" />
        <g
           id="ProcessOnG1019"
           transform="matrix(1.0,0.0,0.0,1.0,0.0,7.125)">
          <text
             id="ProcessOnText1020"
             fill="#000000"
             font-size="15"
             x="64.5"
             y="15.375"
             font-family="宋体"
             font-weight="normal"
             font-style="normal"
             text-decoration="none"
             family="宋体"
             text-anchor="middle"
             size="15"
             style="font-size:14px;">节点一启动</text>
        </g>
      </g>
      <g
         id="ProcessOnG1021"
         transform="matrix(1.0,0.0,0.0,1.0,420.0,158.0)"
         opacity="1.0">
        <path
           id="ProcessOnPath1022"
           d="M0.0 0.0L120.0 0.0L120.0 22.0L0.0 22.0Z"
           stroke="none"
           stroke-width="0.0"
           stroke-dasharray="none"
           opacity="1.0"
           fill="none" />
        <g
           id="ProcessOnG1023"
           transform="matrix(1.0,0.0,0.0,1.0,0.0,2.875)">
          <text
             id="ProcessOnText1024"
             fill="#000000"
             font-size="13"
             x="59.0"
             y="13.325"
             font-family="宋体"
             font-weight="normal"
             font-style="normal"
             text-decoration="none"
             family="宋体"
             text-anchor="middle"
             size="13"
             style="font-size:14px;">节点三启动</text>
        </g>
      </g>
      <g
         id="ProcessOnG1025"
         transform="matrix(1.0,0.0,0.0,1.0,289.0,153.25)"
         opacity="1.0">
        <path
           id="ProcessOnPath1026"
           d="M0.0 0.0L131.0 0.0L131.0 33.0L0.0 33.0Z"
           stroke="none"
           stroke-width="0.0"
           stroke-dasharray="none"
           opacity="1.0"
           fill="none" />
        <g
           id="ProcessOnG1027"
           transform="matrix(1.0,0.0,0.0,1.0,0.0,8.375)">
          <text
             id="ProcessOnText1028"
             fill="#000000"
             font-size="13"
             x="64.5"
             y="13.325"
             font-family="宋体"
             font-weight="normal"
             font-style="normal"
             text-decoration="none"
             family="宋体"
             text-anchor="middle"
             size="13"
             style="font-size:14px;">节点而启动</text>
        </g>
      </g>
      <g
         id="ProcessOnG1029"
         transform="matrix(1.0,0.0,0.0,1.0,543.375,153.25)"
         opacity="1.0">
        <path
           id="ProcessOnPath1030"
           d="M0.0 0.0L131.0 0.0L131.0 33.0L0.0 33.0Z"
           stroke="none"
           stroke-width="0.0"
           stroke-dasharray="none"
           opacity="1.0"
           fill="none" />
        <g
           id="ProcessOnG1031"
           transform="matrix(1.0,0.0,0.0,1.0,0.0,8.375)">
          <text
             id="ProcessOnText1032"
             fill="#000000"
             font-size="13"
             x="64.5"
             y="13.325"
             font-family="宋体"
             font-weight="normal"
             font-style="normal"
             text-decoration="none"
             family="宋体"
             text-anchor="middle"
             size="13"
             style="font-size:14px;">节点四启动</text>
        </g>
      </g>
      <g
         id="ProcessOnG1033"
         transform="matrix(1.0,0.0,0.0,1.0,157.0,70.80000305175781)"
         opacity="1.0">
        <path
           id="ProcessOnPath1034"
           d="M0.0 28.775998992919924L495.2000045776367 28.775998992919924L495.2000045776367 0.0L538.8000030517578 43.599998474121094L495.2000045776367 87.19999694824219L495.2000045776367 58.42399795532227L0.0 58.42399795532227L0.0 28.775998992919924Z"
           stroke="#323232"
           stroke-width="2.0"
           stroke-dasharray="none"
           opacity="1.0"
           fill="#ffffff" />
        <g
           id="ProcessOnG1035"
           transform="matrix(1.0,0.0,0.0,1.0,0.0,34.224998474121094)">
          <text
             id="ProcessOnText1036"
             fill="#000000"
             font-size="15"
             x="268.4000015258789"
             y="15.375"
             font-family="宋体"
             font-weight="normal"
             font-style="normal"
             text-decoration="none"
             family="宋体"
             text-anchor="middle"
             size="15"
             style="font-size:14px;">启动时间</text>
        </g>
      </g>
      <g
         id="ProcessOnG1037"
         transform="matrix(1.0,0.0,0.0,1.0,167.375,330.0)"
         opacity="1.0">
        <path
           id="ProcessOnPath1038"
           d="M0.0 0.0L84.07954406738281 0.0L100.07954406738281 16.0L100.07954406738281 100.0L0.0 100.0L0.0 0.0Z"
           stroke="none"
           stroke-width="0.0"
           stroke-dasharray="none"
           opacity="1.0"
           fill="#ffffaa" />
        <path
           id="ProcessOnPath1039"
           d="M84.07954406738281 0.0L84.07954406738281 16.0L100.07954406738281 16.0Z"
           stroke="none"
           stroke-width="0.0"
           stroke-dasharray="none"
           opacity="1.0"
           fill="#cdcd78" />
        <path
           id="ProcessOnPath1040"
           d="M0.0 0.0L84.07954406738281 0.0L100.07954406738281 16.0L100.07954406738281 100.0L0.0 100.0L0.0 0.0Z"
           stroke="none"
           stroke-width="0.0"
           stroke-dasharray="none"
           opacity="1.0"
           fill="none" />
        <g
           id="ProcessOnG1041"
           transform="matrix(1.0,0.0,0.0,1.0,10.0,25.625)">
          <text
             id="ProcessOnText1042"
             fill="#000000"
             font-size="13"
             x="39.039772033691406"
             y="13.325"
             font-family="宋体"
             font-weight="normal"
             font-style="normal"
             text-decoration="none"
             family="宋体"
             text-anchor="middle"
             size="13"
             style="font-size:14px;">最开始启动的</text>
          <text
             id="ProcessOnText1043"
             fill="#000000"
             font-size="13"
             x="39.039772033691406"
             y="29.575"
             font-family="宋体"
             font-weight="normal"
             font-style="normal"
             text-decoration="none"
             family="宋体"
             text-anchor="middle"
             size="13"
             style="font-size:14px;">计算机为主计</text>
          <text
             id="ProcessOnText1044"
             fill="#000000"
             font-size="13"
             x="39.039772033691406"
             y="45.825"
             font-family="宋体"
             font-weight="normal"
             font-style="normal"
             text-decoration="none"
             family="宋体"
             text-anchor="middle"
             size="13"
             style="font-size:14px;">算机</text>
        </g>
      </g>
      <g
         id="ProcessOnG1045">
        <path
           id="ProcessOnPath1046"
           d="M207.375 271.25L207.375 298.625L207.375 298.625L207.375 310.7639320225002"
           stroke="#323232"
           stroke-width="2.0"
           stroke-dasharray="none"
           fill="none"
           marker-end="url(#ProcessOnMarker1047)" />
      </g>
      <g
         id="ProcessOnG1049"
         transform="matrix(1.0,0.0,0.0,1.0,305.375,330.0)"
         opacity="1.0">
        <path
           id="ProcessOnPath1050"
           d="M0.0 0.0L183.0795440673828 0.0L199.0795440673828 16.0L199.0795440673828 100.0L0.0 100.0L0.0 0.0Z"
           stroke="none"
           stroke-width="0.0"
           stroke-dasharray="none"
           opacity="1.0"
           fill="#ffffaa" />
        <path
           id="ProcessOnPath1051"
           d="M183.0795440673828 0.0L183.0795440673828 16.0L199.0795440673828 16.0Z"
           stroke="none"
           stroke-width="0.0"
           stroke-dasharray="none"
           opacity="1.0"
           fill="#cdcd78" />
        <path
           id="ProcessOnPath1052"
           d="M0.0 0.0L183.0795440673828 0.0L199.0795440673828 16.0L199.0795440673828 100.0L0.0 100.0L0.0 0.0Z"
           stroke="none"
           stroke-width="0.0"
           stroke-dasharray="none"
           opacity="1.0"
           fill="none" />
        <g
           id="ProcessOnG1053"
           transform="matrix(1.0,0.0,0.0,1.0,10.0,17.5)">
          <text
             id="ProcessOnText1054"
             fill="#000000"
             font-size="13"
             x="88.5397720336914"
             y="13.325"
             font-family="宋体"
             font-weight="normal"
             font-style="normal"
             text-decoration="none"
             family="宋体"
             text-anchor="middle"
             size="13"
             style="font-size:14px;">当后面的计算机启动以后通过</text>
          <text
             id="ProcessOnText1055"
             fill="#000000"
             font-size="13"
             x="88.5397720336914"
             y="29.575"
             font-family="宋体"
             font-weight="normal"
             font-style="normal"
             text-decoration="none"
             family="宋体"
             text-anchor="middle"
             size="13"
             style="font-size:14px;">多播可以发现主计算机，然后</text>
          <text
             id="ProcessOnText1056"
             fill="#000000"
             font-size="13"
             x="88.5397720336914"
             y="45.825"
             font-family="宋体"
             font-weight="normal"
             font-style="normal"
             text-decoration="none"
             family="宋体"
             text-anchor="middle"
             size="13"
             style="font-size:14px;">通过主计算机就可以知道其他</text>
          <text
             id="ProcessOnText1057"
             fill="#000000"
             font-size="13"
             x="88.5397720336914"
             y="62.075"
             font-family="宋体"
             font-weight="normal"
             font-style="normal"
             text-decoration="none"
             family="宋体"
             text-anchor="middle"
             size="13"
             style="font-size:14px;">所有计算机的信息</text>
        </g>
      </g>
      <g
         id="ProcessOnG1058">
        <path
           id="ProcessOnPath1059"
           d="M346.375 271.25L346.375 300.625L346.375 300.625L346.375 314.7639320225002"
           stroke="#323232"
           stroke-width="2.0"
           stroke-dasharray="none"
           fill="none"
           marker-end="url(#ProcessOnMarker1060)" />
      </g>
      <g
         id="ProcessOnG1062"
         transform="matrix(1.0,0.0,0.0,1.0,521.1750030517578,333.0)"
         opacity="1.0">
        <path
           id="ProcessOnPath1063"
           d="M0.0 0.0L151.279541015625 0.0L167.279541015625 16.0L167.279541015625 94.0L0.0 94.0L0.0 0.0Z"
           stroke="none"
           stroke-width="0.0"
           stroke-dasharray="none"
           opacity="1.0"
           fill="#ffffaa" />
        <path
           id="ProcessOnPath1064"
           d="M151.279541015625 0.0L151.279541015625 16.0L167.279541015625 16.0Z"
           stroke="none"
           stroke-width="0.0"
           stroke-dasharray="none"
           opacity="1.0"
           fill="#cdcd78" />
        <path
           id="ProcessOnPath1065"
           d="M0.0 0.0L151.279541015625 0.0L167.279541015625 16.0L167.279541015625 94.0L0.0 94.0L0.0 0.0Z"
           stroke="none"
           stroke-width="0.0"
           stroke-dasharray="none"
           opacity="1.0"
           fill="none" />
        <g
           id="ProcessOnG1066"
           transform="matrix(1.0,0.0,0.0,1.0,10.0,30.75)">
          <text
             id="ProcessOnText1067"
             fill="#000000"
             font-size="13"
             x="72.6397705078125"
             y="13.325"
             font-family="宋体"
             font-weight="normal"
             font-style="normal"
             text-decoration="none"
             family="宋体"
             text-anchor="middle"
             size="13"
             style="font-size:14px;">当节点1关掉以后，节点2</text>
          <text
             id="ProcessOnText1068"
             fill="#000000"
             font-size="13"
             x="72.6397705078125"
             y="29.575"
             font-family="宋体"
             font-weight="normal"
             font-style="normal"
             text-decoration="none"
             family="宋体"
             text-anchor="middle"
             size="13"
             style="font-size:14px;">自动成为主计算机</text>
        </g>
      </g>
      <g
         id="ProcessOnG1069">
        <path
           id="ProcessOnPath1070"
           d="M608.875 271.25L608.875 298.0249996185303L608.875 298.0249996185303L608.875 309.5639312595608"
           stroke="#323232"
           stroke-width="2.0"
           stroke-dasharray="none"
           fill="none"
           marker-end="url(#ProcessOnMarker1071)" />
      </g>
      <g
         id="ProcessOnG1073">
        <path
           id="ProcessOnPath1074"
           d="M475.0 271.25L475.0 300.625L475.0 300.625L475.0 314.7639320225002"
           stroke="#323232"
           stroke-width="2.0"
           stroke-dasharray="none"
           fill="none"
           marker-end="url(#ProcessOnMarker1075)" />
      </g>
    </g>
  </g>
</svg>
