<svg xmlns="http://www.w3.org/2000/svg" xmlns:xlink="http://www.w3.org/1999/xlink" id="processonSvg1000" viewBox="353.1000061035156 256.1999969482422 265.49998474121094 225.0" width="265.49998474121094" height="225.0"><defs id="ProcessOnDefs1001"/><g id="ProcessOnG1002"><path id="ProcessOnPath1003" d="M353.1000061035156 256.1999969482422H618.5999908447266V481.1999969482422H353.1000061035156V256.1999969482422Z" fill="none"/><g id="ProcessOnG1004"><g id="ProcessOnG1005" transform="matrix(1.0,0.0,0.0,1.0,373.1000061035156,367.1999969482422)" opacity="1.0"><path id="ProcessOnPath1006" d="M0.0 0.0L225.49998474121094 0.0L225.49998474121094 47.0L0.0 47.0Z" stroke="#323232" stroke-width="2.0" stroke-dasharray="none" opacity="1.0" fill="#ffffff"/><g id="ProcessOnG1007" transform="matrix(1.0,0.0,0.0,1.0,10.0,14.75)"><text id="ProcessOnText1008" fill="#000000" font-size="14" x="101.74999237060547" y="14.350000000000001" font-family="宋体" font-weight="normal" font-style="normal" text-decoration="none" family="宋体" text-anchor="middle" size="14">JSQL接口功能模块</text></g></g><g id="ProcessOnG1009" transform="matrix(1.0,0.0,0.0,1.0,373.1000061035156,320.1999969482422)" opacity="1.0"><path id="ProcessOnPath1010" d="M0.0 0.0L225.49998474121094 0.0L225.49998474121094 47.0L0.0 47.0Z" stroke="#323232" stroke-width="2.0" stroke-dasharray="none" opacity="1.0" fill="#ffffff"/><g id="ProcessOnG1011" transform="matrix(1.0,0.0,0.0,1.0,10.0,14.75)"><text id="ProcessOnText1012" fill="#000000" font-size="14" x="101.74999237060547" y="14.350000000000001" font-family="宋体" font-weight="normal" font-style="normal" text-decoration="none" family="宋体" text-anchor="middle" size="14">elasticsearch审计数据库模块</text></g></g><g id="ProcessOnG1013" transform="matrix(1.0,0.0,0.0,1.0,373.1000061035156,276.1999969482422)" opacity="1.0"><path id="ProcessOnPath1014" d="M0.0 0.0L225.49998474121094 0.0L225.49998474121094 44.0L0.0 44.0Z" stroke="#323232" stroke-width="2.0" stroke-dasharray="none" opacity="1.0" fill="#ffffff"/><g id="ProcessOnG1015" transform="matrix(1.0,0.0,0.0,1.0,10.0,13.25)"><text id="ProcessOnText1016" fill="#000000" font-size="14" x="101.74999237060547" y="14.350000000000001" font-family="宋体" font-weight="normal" font-style="normal" text-decoration="none" family="宋体" text-anchor="middle" size="14">gfafana可视化模块</text></g></g><g id="ProcessOnG1017" transform="matrix(1.0,0.0,0.0,1.0,373.1000061035156,411.5999984741211)" opacity="1.0"><path id="ProcessOnPath1018" d="M0.0 0.0L225.49998474121094 0.0L225.49998474121094 49.599998474121094L0.0 49.599998474121094Z" stroke="#323232" stroke-width="2.0" stroke-dasharray="none" opacity="1.0" fill="#ffffff"/><g id="ProcessOnG1019" transform="matrix(1.0,0.0,0.0,1.0,10.0,16.049999237060547)"><text id="ProcessOnText1020" fill="#000000" font-size="14" x="101.74999237060547" y="14.350000000000001" font-family="宋体" font-weight="normal" font-style="normal" text-decoration="none" family="宋体" text-anchor="middle" size="14">本地日志层功能模块</text></g></g></g></g></svg>