<svg xmlns="http://www.w3.org/2000/svg" xmlns:xlink="http://www.w3.org/1999/xlink" id="processonSvg1000" viewBox="339.1000061035156 -7.4000091552734375 383.49998474121094 515.0000095367432" width="383.49998474121094" height="515.0000095367432"><defs id="ProcessOnDefs1001"><marker id="ProcessOnMarker1029" markerUnits="userSpaceOnUse" orient="auto" markerWidth="16.23606797749979" markerHeight="10.550836550532098" viewBox="-1.0 -1.3763819204711736 16.23606797749979 10.550836550532098" refX="-1.0" refY="3.8990363547948754"><path id="ProcessOnPath1030" d="M12.0 3.8990363547948754L0.0 7.798072709589751V0.0Z" stroke="#323232" stroke-width="2.0" fill="#323232" transform="matrix(1.0,0.0,0.0,1.0,0.0,0.0)"/></marker><marker id="ProcessOnMarker1036" markerUnits="userSpaceOnUse" orient="auto" markerWidth="16.23606797749979" markerHeight="10.550836550532098" viewBox="-1.0 -1.3763819204711736 16.23606797749979 10.550836550532098" refX="-1.0" refY="3.8990363547948754"><path id="ProcessOnPath1037" d="M12.0 3.8990363547948754L0.0 7.798072709589751V0.0Z" stroke="#323232" stroke-width="2.0" fill="#323232" transform="matrix(1.0,0.0,0.0,1.0,0.0,0.0)"/></marker><marker id="ProcessOnMarker1043" markerUnits="userSpaceOnUse" orient="auto" markerWidth="16.23606797749979" markerHeight="10.550836550532098" viewBox="-1.0 -1.3763819204711736 16.23606797749979 10.550836550532098" refX="15.23606797749979" refY="3.8990363547948754"><path id="ProcessOnPath1044" d="M12.0 3.8990363547948754L0.0 7.798072709589751V0.0Z" stroke="#323232" stroke-width="2.0" fill="#323232" transform="matrix(-1.0,1.2246467991473532E-16,-1.2246467991473532E-16,-1.0,14.23606797749979,7.798072709589751)"/></marker><marker id="ProcessOnMarker1050" markerUnits="userSpaceOnUse" orient="auto" markerWidth="16.23606797749979" markerHeight="10.550836550532098" viewBox="-1.0 -1.3763819204711736 16.23606797749979 10.550836550532098" refX="-1.0" refY="3.8990363547948754"><path id="ProcessOnPath1051" d="M12.0 3.8990363547948754L0.0 7.798072709589751V0.0Z" stroke="#323232" stroke-width="2.0" fill="#323232" transform="matrix(1.0,0.0,0.0,1.0,0.0,0.0)"/></marker><marker id="ProcessOnMarker1054" markerUnits="userSpaceOnUse" orient="auto" markerWidth="16.23606797749979" markerHeight="10.550836550532098" viewBox="-1.0 -1.3763819204711736 16.23606797749979 10.550836550532098" refX="-1.0" refY="3.8990363547948754"><path id="ProcessOnPath1055" d="M12.0 3.8990363547948754L0.0 7.798072709589751V0.0Z" stroke="#323232" stroke-width="2.0" fill="#323232" transform="matrix(1.0,0.0,0.0,1.0,0.0,0.0)"/></marker><marker id="ProcessOnMarker1058" markerUnits="userSpaceOnUse" orient="auto" markerWidth="16.23606797749979" markerHeight="10.550836550532098" viewBox="-1.0 -1.3763819204711736 16.23606797749979 10.550836550532098" refX="-1.0" refY="3.8990363547948754"><path id="ProcessOnPath1059" d="M12.0 3.8990363547948754L0.0 7.798072709589751V0.0Z" stroke="#323232" stroke-width="2.0" fill="#323232" transform="matrix(1.0,0.0,0.0,1.0,0.0,0.0)"/></marker><marker id="ProcessOnMarker1070" markerUnits="userSpaceOnUse" orient="auto" markerWidth="16.23606797749979" markerHeight="10.550836550532098" viewBox="-1.0 -1.3763819204711736 16.23606797749979 10.550836550532098" refX="-1.0" refY="3.8990363547948754"><path id="ProcessOnPath1071" d="M12.0 3.8990363547948754L0.0 7.798072709589751V0.0Z" stroke="#323232" stroke-width="2.0" fill="#323232" transform="matrix(1.0,0.0,0.0,1.0,0.0,0.0)"/></marker><marker id="ProcessOnMarker1074" markerUnits="userSpaceOnUse" orient="auto" markerWidth="16.23606797749979" markerHeight="10.550836550532098" viewBox="-1.0 -1.3763819204711736 16.23606797749979 10.550836550532098" refX="-1.0" refY="3.8990363547948754"><path id="ProcessOnPath1075" d="M12.0 3.8990363547948754L0.0 7.798072709589751V0.0Z" stroke="#323232" stroke-width="2.0" fill="#323232" transform="matrix(1.0,0.0,0.0,1.0,0.0,0.0)"/></marker><marker id="ProcessOnMarker1082" markerUnits="userSpaceOnUse" orient="auto" markerWidth="16.23606797749979" markerHeight="10.550836550532098" viewBox="-1.0 -1.3763819204711736 16.23606797749979 10.550836550532098" refX="-1.0" refY="3.8990363547948754"><path id="ProcessOnPath1083" d="M12.0 3.8990363547948754L0.0 7.798072709589751V0.0Z" stroke="#323232" stroke-width="2.0" fill="#323232" transform="matrix(1.0,0.0,0.0,1.0,0.0,0.0)"/></marker></defs><g id="ProcessOnG1002"><path id="ProcessOnPath1003" d="M339.1000061035156 -7.4000091552734375H722.5999908447266V507.6000003814697H339.1000061035156V-7.4000091552734375Z" fill="none"/><g id="ProcessOnG1004"><g id="ProcessOnG1005" transform="matrix(1.0,0.0,0.0,1.0,362.3500175476074,95.5999984741211)" opacity="1.0"><path id="ProcessOnPath1006" d="M0.0 0.0L160.4999771118164 0.0L160.4999771118164 47.400001525878906L0.0 47.400001525878906Z" stroke="#323232" stroke-width="2.0" stroke-dasharray="none" opacity="1.0" fill="#ffffff"/><g id="ProcessOnG1007" transform="matrix(1.0,0.0,0.0,1.0,10.0,14.950000762939453)"><text id="ProcessOnText1008" fill="#000000" font-size="14" x="69.2499885559082" y="14.350000000000001" font-family="宋体" font-weight="normal" font-style="normal" text-decoration="none" family="宋体" text-anchor="middle" size="14">收到客户端请求</text></g></g><g id="ProcessOnG1009" transform="matrix(1.0,0.0,0.0,1.0,364.2250118255615,167.5999984741211)" opacity="1.0"><path id="ProcessOnPath1010" d="M0.0 0.0L156.7499885559082 0.0L156.7499885559082 59.400001525878906L0.0 59.400001525878906Z" stroke="#323232" stroke-width="2.0" stroke-dasharray="none" opacity="1.0" fill="#ffffff"/><g id="ProcessOnG1011" transform="matrix(1.0,0.0,0.0,1.0,10.0,12.200000762939453)"><text id="ProcessOnText1012" fill="#000000" font-size="14" x="67.3749942779541" y="14.350000000000001" font-family="宋体" font-weight="normal" font-style="normal" text-decoration="none" family="宋体" text-anchor="middle" size="14">分布式管理节点遍历</text><text id="ProcessOnText1013" fill="#000000" font-size="14" x="67.3749942779541" y="31.85" font-family="宋体" font-weight="normal" font-style="normal" text-decoration="none" family="宋体" text-anchor="middle" size="14">分布式节点数组</text></g></g><g id="ProcessOnG1014" transform="matrix(1.0,0.0,0.0,1.0,366.10001373291016,252.89999771118164)" opacity="1.0"><path id="ProcessOnPath1015" d="M0.0 39.70000076293945L76.49999237060547 0.0L152.99998474121094 39.70000076293945L76.49999237060547 79.4000015258789L0.0 39.70000076293945Z" stroke="#323232" stroke-width="2.0" stroke-dasharray="none" opacity="1.0" fill="#ffffff"/><g id="ProcessOnG1016" transform="matrix(1.0,0.0,0.0,1.0,10.0,30.950000762939453)"><text id="ProcessOnText1017" fill="#000000" font-size="14" x="65.49999237060547" y="14.350000000000001" font-family="宋体" font-weight="normal" font-style="normal" text-decoration="none" family="宋体" text-anchor="middle" size="14">还有没检查完的节点</text></g></g><g id="ProcessOnG1018" transform="matrix(1.0,0.0,0.0,1.0,359.1000061035156,357.5999984741211)" opacity="1.0"><path id="ProcessOnPath1019" d="M0.0 0.0L167.0 0.0L167.0 42.400001525878906L0.0 42.400001525878906Z" stroke="#323232" stroke-width="2.0" stroke-dasharray="none" opacity="1.0" fill="#ffffff"/><g id="ProcessOnG1020" transform="matrix(1.0,0.0,0.0,1.0,10.0,12.450000762939453)"><text id="ProcessOnText1021" fill="#000000" font-size="14" x="72.5" y="14.350000000000001" font-family="宋体" font-weight="normal" font-style="normal" text-decoration="none" family="宋体" text-anchor="middle" size="14">返回错误</text></g></g><g id="ProcessOnG1022" transform="matrix(1.0,0.0,0.0,1.0,565.4749927520752,441.050000667572)" opacity="1.0"><path id="ProcessOnPath1023" d="M0.0 0.0L137.12499809265137 0.0L137.12499809265137 43.09999942779541L0.0 43.09999942779541Z" stroke="#323232" stroke-width="2.0" stroke-dasharray="none" opacity="1.0" fill="#ffffff"/><g id="ProcessOnG1024" transform="matrix(1.0,0.0,0.0,1.0,10.0,4.049999713897705)"><text id="ProcessOnText1025" fill="#000000" font-size="14" x="57.562499046325684" y="14.350000000000001" font-family="宋体" font-weight="normal" font-style="normal" text-decoration="none" family="宋体" text-anchor="middle" size="14">返回客户端节点地</text><text id="ProcessOnText1026" fill="#000000" font-size="14" x="57.562499046325684" y="31.85" font-family="宋体" font-weight="normal" font-style="normal" text-decoration="none" family="宋体" text-anchor="middle" size="14">址</text></g></g><g id="ProcessOnG1027"><path id="ProcessOnPath1028" d="M519.0999984741211 292.5999984741211L554.068745136261 292.5999984741211L554.068745136261 292.5999984741211L573.801423820901 292.5999984741211" stroke="#323232" stroke-width="2.0" stroke-dasharray="none" fill="none" marker-end="url(#ProcessOnMarker1029)"/><g id="ProcessOnG1031" transform="matrix(1.0,0.0,0.0,1.0,546.4507111475111,283.8499984741211)"><path id="ProcessOnPath1032" d="M0 0H14.0V17.5H0Z" fill="#fff" transform="matrix(1.0,0.0,0.0,1.0,-7.0,0.0)"/><text id="ProcessOnText1033" fill="#000000" font-size="14" x="0.0" y="14.350000000000001" font-family="宋体" font-weight="normal" font-style="normal" text-decoration="none" family="宋体" text-anchor="middle" size="14">是</text></g></g><g id="ProcessOnG1034"><path id="ProcessOnPath1035" d="M442.6000061035156 332.29999923706055L442.6000061035156 344.9499988555908L442.6000061035156 344.9499988555908L442.6000061035156 345.9499988555908" stroke="#323232" stroke-width="2.0" stroke-dasharray="none" fill="none" marker-end="url(#ProcessOnMarker1036)"/><g id="ProcessOnG1038" transform="matrix(1.0,0.0,0.0,1.0,442.6000061035156,330.3749990463257)"><path id="ProcessOnPath1039" d="M0 0H14.0V17.5H0Z" fill="#fff" transform="matrix(1.0,0.0,0.0,1.0,-7.0,0.0)"/><text id="ProcessOnText1040" fill="#000000" font-size="14" x="0.0" y="14.350000000000001" font-family="宋体" font-weight="normal" font-style="normal" text-decoration="none" family="宋体" text-anchor="middle" size="14">否</text></g></g><g id="ProcessOnG1041"><path id="ProcessOnPath1042" d="M634.0374917984009 425.81393269007225L634.0374917984009 384.32499957084656L634.0374917984009 384.32499957084656L634.0374917984009 327.5999984741211" stroke="#323232" stroke-width="2.0" stroke-dasharray="none" fill="none" marker-start="url(#ProcessOnMarker1043)"/><g id="ProcessOnG1045" transform="matrix(1.0,0.0,0.0,1.0,634.0374917984009,367.9569655820967)"><path id="ProcessOnPath1046" d="M0 0H14.0V17.5H0Z" fill="#fff" transform="matrix(1.0,0.0,0.0,1.0,-7.0,0.0)"/><text id="ProcessOnText1047" fill="#000000" font-size="14" x="0.0" y="14.350000000000001" font-family="宋体" font-weight="normal" font-style="normal" text-decoration="none" family="宋体" text-anchor="middle" size="14">否</text></g></g><g id="ProcessOnG1048"><path id="ProcessOnPath1049" d="M442.6000061035156 63.599998474121094L442.6000061035156 79.5999984741211L442.6000061035156 79.5999984741211L442.6000061035156 80.36393049662131" stroke="#323232" stroke-width="2.0" stroke-dasharray="none" fill="none" marker-end="url(#ProcessOnMarker1050)"/></g><g id="ProcessOnG1052"><path id="ProcessOnPath1053" d="M442.6000061035156 143.0L442.6000061035156 155.29999923706055L442.6000061035156 155.29999923706055L442.6000061035156 156.29999923706055" stroke="#323232" stroke-width="2.0" stroke-dasharray="none" fill="none" marker-end="url(#ProcessOnMarker1054)"/></g><g id="ProcessOnG1056"><path id="ProcessOnPath1057" d="M442.6000061035156 227.0L442.6000061035156 239.94999885559082L442.6000061035156 239.94999885559082L442.6000061035156 240.94999885559082" stroke="#323232" stroke-width="2.0" stroke-dasharray="none" fill="none" marker-end="url(#ProcessOnMarker1058)"/></g><g id="ProcessOnG1060" transform="matrix(1.0,0.0,0.0,1.0,394.85000228881836,437.6000003814697)" opacity="1.0"><path id="ProcessOnPath1061" d="M16.666666666666668 0.0L83.33333333333333 0.0C105.55555555555556 0.0 105.55555555555556 50.0 83.33333333333333 50.0L16.666666666666668 50.0C-5.555555555555556 50.0 -5.555555555555556 0.0 16.666666666666668 0.0Z" stroke="#323232" stroke-width="2.0" stroke-dasharray="none" opacity="1.0" fill="#ffffff"/><g id="ProcessOnG1062" transform="matrix(1.0,0.0,0.0,1.0,10.0,16.25)"><text id="ProcessOnText1063" fill="#000000" font-size="14" x="39.0" y="14.350000000000001" font-family="宋体" font-weight="normal" font-style="normal" text-decoration="none" family="宋体" text-anchor="middle" size="14">算法结束</text></g></g><g id="ProcessOnG1064" transform="matrix(1.0,0.0,0.0,1.0,392.6000061035156,12.599990844726562)" opacity="1.0"><path id="ProcessOnPath1065" d="M16.666666666666668 0.0L83.33333333333333 0.0C105.55555555555556 0.0 105.55555555555556 50.0 83.33333333333333 50.0L16.666666666666668 50.0C-5.555555555555556 50.0 -5.555555555555556 0.0 16.666666666666668 0.0Z" stroke="#323232" stroke-width="2.0" stroke-dasharray="none" opacity="1.0" fill="#ffffff"/><g id="ProcessOnG1066" transform="matrix(1.0,0.0,0.0,1.0,10.0,16.25)"><text id="ProcessOnText1067" fill="#000000" font-size="14" x="39.0" y="14.350000000000001" font-family="宋体" font-weight="normal" font-style="normal" text-decoration="none" family="宋体" text-anchor="middle" size="14">开始</text></g></g><g id="ProcessOnG1068"><path id="ProcessOnPath1069" d="M442.6000061035156 400.0L442.6000061035156 418.80000019073486L444.85000228881836 418.80000019073486L444.85000228881836 422.36393240396995" stroke="#323232" stroke-width="2.0" stroke-dasharray="none" fill="none" marker-end="url(#ProcessOnMarker1070)"/></g><g id="ProcessOnG1072"><path id="ProcessOnPath1073" d="M565.4749927520752 462.6000003814697L530.1624975204468 462.6000003814697L530.1624975204468 462.6000003814697L510.08607026631813 462.6000003814697" stroke="#323232" stroke-width="2.0" stroke-dasharray="none" fill="none" marker-end="url(#ProcessOnMarker1074)"/></g><g id="ProcessOnG1076" transform="matrix(1.0,0.0,0.0,1.0,589.0374917984009,257.5999984741211)" opacity="1.0"><path id="ProcessOnPath1077" d="M0.0 35.0L45.0 0.0L90.0 35.0L45.0 70.0L0.0 35.0Z" stroke="#323232" stroke-width="2.0" stroke-dasharray="none" opacity="1.0" fill="#ffffff"/><g id="ProcessOnG1078" transform="matrix(1.0,0.0,0.0,1.0,10.0,26.25)"><text id="ProcessOnText1079" fill="#000000" font-size="14" x="34.0" y="14.350000000000001" font-family="宋体" font-weight="normal" font-style="normal" text-decoration="none" family="宋体" text-anchor="middle" size="14">是否超载</text></g></g><g id="ProcessOnG1080"><path id="ProcessOnPath1081" d="M634.0374917984009 257.5999984741211L634.0374917984009 197.29999923706055L536.2110683589696 197.29999923706055" stroke="#323232" stroke-width="2.0" stroke-dasharray="none" fill="none" marker-end="url(#ProcessOnMarker1082)"/><g id="ProcessOnG1084" transform="matrix(1.0,0.0,0.0,1.0,615.2742796972154,188.54999923706055)"><path id="ProcessOnPath1085" d="M0 0H14.0V17.5H0Z" fill="#fff" transform="matrix(1.0,0.0,0.0,1.0,-7.0,0.0)"/><text id="ProcessOnText1086" fill="#000000" font-size="14" x="0.0" y="14.350000000000001" font-family="宋体" font-weight="normal" font-style="normal" text-decoration="none" family="宋体" text-anchor="middle" size="14">是</text></g></g></g></g></svg>