<svg xmlns="http://www.w3.org/2000/svg" xmlns:xlink="http://www.w3.org/1999/xlink" id="processonSvg1000" viewBox="232.34996795654297 151.26664209365845 466.54168701171875 494.0" width="466.54168701171875" height="494.0"><defs id="ProcessOnDefs1001"><marker id="ProcessOnMarker1059" markerUnits="userSpaceOnUse" orient="auto" markerWidth="16.23606797749979" markerHeight="10.550836550532098" viewBox="-1.0 -1.3763819204711736 16.23606797749979 10.550836550532098" refX="-1.0" refY="3.8990363547948754"><path id="ProcessOnPath1060" d="M12.0 3.8990363547948754L0.0 7.798072709589751V0.0Z" stroke="#323232" stroke-width="2.0" fill="#323232" transform="matrix(1.0,0.0,0.0,1.0,0.0,0.0)"/></marker></defs><g id="ProcessOnG1002"><path id="ProcessOnPath1003" d="M232.34996795654297 151.26664209365845H698.8916549682617V645.2666420936584H232.34996795654297V151.26664209365845Z" fill="none"/><g id="ProcessOnG1004"><g id="ProcessOnG1005" transform="matrix(1.0,0.0,0.0,1.0,581.8708190917969,286.88330936431885)" opacity="1.0"><g id="ProcessOnG1007" transform="matrix(1.0511604019358187,0.0,0.0,0.7378472288449606,0.0,0.0)"> <g> <path fill="#9BA5A8" d="M40.746,46.869h-0.62L0.073,46.531l0.395,0.507l0.791,0.847C1.314,48,1.54,48,1.708,48h37.177H39.9h0.168 h0.793h36.441c0.168,0,0.396-0.115,0.508-0.227l0.791-0.679l0.395-0.395L40.746,46.869z"/> <path fill="#778184" d="M43.174,46.869c0,0-0.283,0.563-0.619,0.563H36.63c-0.339,0-0.621-0.563-0.621-0.563H43.174z"/> <path fill="#32475A" d="M68.502,36.141H11.073c-0.959,0-1.467-0.508-1.467-1.412V0.958C9.607,0.395,10.001,0,10.566,0h58.5 c0.51,0,0.902,0.395,0.902,0.845v33.826C69.969,35.633,69.46,36.141,68.502,36.141z"/> <path fill="#BBC4CB" d="M78.432,46.869c-25.558,0-52.294,0-77.852,0c-0.62,0-0.789-0.621-0.281-1.184 c2.481-2.938,5.472-5.763,7.954-8.699c0.452-0.563,1.241-0.848,1.748-0.848c19.689,0,39.377,0,59.063,0 c0.511,0,1.24,0.228,1.75,0.789c2.481,2.938,5.473,5.932,7.955,8.867C79.164,46.361,79.053,46.869,78.432,46.869z"/> <path fill="#FFFFFF" d="M67.6,34.445H11.187c0,0,0-1.186,0-1.242V3.387c0,0,0.733,0,0.791,0H67.6v29.816 C67.6,33.261,67.6,34.445,67.6,34.445z"/> <circle fill="#476472" cx="39.505" cy="1.58" r="0.564"/> <g> <path fill="#32475A" d="M13.838,37.328c-0.057,0.054-0.17,0.109-0.226,0.109c-1.015,0-1.974,0-2.99,0 c-0.056,0-0.056-0.057,0-0.109c0.112-0.115,0.17-0.227,0.283-0.398c0.056-0.055,0.168-0.111,0.226-0.111c0.958,0,1.974,0,2.934,0 c0.055,0,0.055,0.058,0.055,0.111C14.007,37.044,13.894,37.155,13.838,37.328z"/> <path fill="#32475A" d="M18.181,37.328c-0.055,0.054-0.113,0.109-0.224,0.109c-1.017,0-1.976,0-2.991,0 c-0.055,0-0.113-0.057-0.055-0.109c0.055-0.115,0.168-0.227,0.224-0.398c0.057-0.055,0.17-0.111,0.226-0.111 c0.959,0,1.975,0,2.934,0c0.057,0,0.113,0.058,0.057,0.111C18.351,37.044,18.294,37.155,18.181,37.328z"/> <path fill="#32475A" d="M22.3,37.328c-0.056,0.054-0.113,0.109-0.168,0.109c-1.017,0-1.974,0-2.991,0 c-0.055,0-0.113-0.057-0.055-0.109c0.055-0.115,0.112-0.227,0.226-0.398c0.056-0.055,0.113-0.111,0.168-0.111 c0.959,0,1.974,0,2.933,0c0.058,0,0.113,0.058,0.058,0.111C22.412,37.044,22.357,37.155,22.3,37.328z"/> <path fill="#32475A" d="M26.7,37.328c0,0.054-0.113,0.109-0.169,0.109c-1.016,0-1.974,0-2.991,0c-0.055,0-0.113-0.057-0.055-0.109 c0.055-0.115,0.113-0.227,0.168-0.398c0.057-0.055,0.113-0.111,0.17-0.111c0.958,0,1.974,0,2.934,0 c0.055,0,0.113,0.058,0.055,0.111C26.757,37.044,26.757,37.155,26.7,37.328z"/> <path fill="#32475A" d="M31.1,37.328c0,0.054-0.113,0.109-0.168,0.109c-1.015,0-1.974,0-2.991,0c-0.055,0-0.112-0.057-0.055-0.109 c0.055-0.115,0.055-0.227,0.113-0.398c0-0.055,0.113-0.111,0.168-0.111c0.959,0,1.974,0,2.934,0c0.057,0,0.113,0.058,0.113,0.111 C31.157,37.044,31.1,37.155,31.1,37.328z"/> <path fill="#32475A" d="M35.445,37.328c0,0.054-0.058,0.109-0.171,0.109c-1.015,0-1.974,0-2.989,0 c-0.055,0-0.113-0.057-0.113-0.109c0-0.115,0.058-0.227,0.058-0.398c0-0.055,0.055-0.111,0.168-0.111c0.959,0,1.974,0,2.933,0 c0.056,0,0.113,0.058,0.113,0.111C35.5,37.044,35.5,37.155,35.445,37.328z"/> <path fill="#32475A" d="M39.563,37.328c0,0.054-0.058,0.109-0.113,0.109c-1.017,0-1.974,0-2.991,0 c-0.056,0-0.113-0.057-0.113-0.109c0-0.115,0-0.227,0.057-0.398c0-0.055,0.056-0.111,0.113-0.111c0.959,0,1.974,0,2.934,0 c0.055,0,0.113,0.058,0.113,0.111C39.563,37.044,39.563,37.155,39.563,37.328z"/> <path fill="#32475A" d="M43.963,37.328c0,0.054-0.059,0.109-0.115,0.109c-1.015,0-1.972,0-2.986,0 c-0.057,0-0.114-0.057-0.114-0.109c0-0.115,0-0.227,0-0.398c0-0.055,0.058-0.111,0.114-0.111c0.957,0,1.973,0,2.935,0 c0.054,0,0.11,0.058,0.11,0.111C43.906,37.044,43.906,37.155,43.963,37.328z"/> <path fill="#32475A" d="M48.307,37.328c0,0.054,0,0.109-0.111,0.109c-1.016,0-1.977,0-2.99,0c-0.059,0-0.115-0.057-0.169-0.109 c0-0.115-0.058-0.227-0.058-0.398c0-0.055,0.058-0.111,0.11-0.111c0.961,0,1.976,0,2.935,0c0.057,0,0.115,0.058,0.172,0.111 C48.248,37.044,48.307,37.155,48.307,37.328z"/> <path fill="#32475A" d="M52.425,37.328c0,0.054,0,0.109-0.056,0.109c-1.016,0-1.977,0-2.991,0c-0.058,0-0.11-0.057-0.169-0.109 c0-0.115-0.057-0.227-0.057-0.398c0-0.055,0-0.111,0.113-0.111c0.957,0,1.973,0,2.935,0c0.054,0,0.169,0.058,0.169,0.111 C52.369,37.044,52.369,37.155,52.425,37.328z"/> <path fill="#32475A" d="M56.826,37.328c0.054,0.054,0,0.109-0.059,0.109c-1.015,0-1.976,0-2.99,0 c-0.057,0-0.168-0.057-0.168-0.109c-0.059-0.115-0.059-0.227-0.114-0.398c0-0.055,0-0.111,0.057-0.111c0.962,0,1.978,0,2.935,0 c0.058,0,0.168,0.058,0.168,0.111C56.711,37.044,56.77,37.155,56.826,37.328z"/> <path fill="#32475A" d="M61.169,37.328c0.058,0.054,0,0.109-0.058,0.109c-1.016,0-1.973,0-2.991,0 c-0.054,0-0.168-0.057-0.168-0.109c-0.058-0.115-0.111-0.227-0.169-0.398c-0.057-0.055,0-0.111,0.058-0.111 c0.957,0,1.972,0,2.935,0c0.054,0,0.168,0.058,0.168,0.111C61.055,37.044,61.111,37.155,61.169,37.328z"/> <path fill="#32475A" d="M65.285,37.328c0.058,0.054,0.058,0.109-0.057,0.109c-1.016,0-1.974,0-2.987,0 c-0.058,0-0.169-0.057-0.228-0.109c-0.057-0.115-0.113-0.227-0.226-0.398c-0.058-0.055,0-0.111,0.058-0.111 c0.957,0,1.973,0,2.934,0c0.055,0,0.169,0.058,0.227,0.111C65.117,37.044,65.229,37.155,65.285,37.328z"/> <path fill="#32475A" d="M69.686,37.328c0.059,0.054,0.059,0.109,0,0.109c-1.015,0-1.973,0-2.99,0 c-0.053,0-0.168-0.057-0.223-0.109c-0.058-0.115-0.173-0.227-0.226-0.398c-0.058-0.055-0.058-0.111,0.053-0.111 c0.962,0,1.978,0,2.935,0c0.058,0,0.173,0.058,0.227,0.111C69.518,37.044,69.575,37.155,69.686,37.328z"/> <path fill="#32475A" d="M12.992,38.568c-0.057,0.111-0.17,0.17-0.282,0.17c-1.017,0-2.031,0-3.046,0 c-0.058,0-0.113-0.059-0.058-0.17c0.171-0.226,0.339-0.45,0.507-0.619c0.058-0.116,0.17-0.174,0.284-0.174 c0.958,0,1.974,0,2.934,0c0.055,0,0.113,0.058,0.055,0.174C13.273,38.118,13.105,38.344,12.992,38.568z"/> <path fill="#32475A" d="M17.505,38.568c-0.058,0.111-0.17,0.17-0.226,0.17c-1.015,0-2.032,0-3.046,0 c-0.055,0-0.113-0.059-0.055-0.17c0.113-0.226,0.281-0.45,0.395-0.619c0.055-0.116,0.168-0.174,0.226-0.174 c0.959,0,1.974,0,2.934,0c0.055,0,0.113,0.058,0.055,0.174C17.731,38.118,17.618,38.344,17.505,38.568z"/> <path fill="#32475A" d="M21.737,38.568c-0.057,0.111-0.113,0.17-0.226,0.17c-1.017,0-2.032,0-3.047,0 c-0.057,0-0.113-0.059-0.057-0.17c0.113-0.226,0.226-0.45,0.339-0.619c0.056-0.116,0.168-0.174,0.226-0.174 c0.959,0,1.974,0,2.934,0c0.055,0,0.112,0.058,0.055,0.174C21.906,38.118,21.847,38.344,21.737,38.568z"/> <path fill="#32475A" d="M26.25,38.568c-0.058,0.111-0.113,0.17-0.226,0.17c-1.017,0-2.032,0-3.047,0 c-0.057,0-0.113-0.059-0.057-0.17c0.113-0.226,0.17-0.45,0.283-0.619c0.056-0.116,0.112-0.174,0.224-0.174 c0.959,0,1.976,0,2.934,0c0.058,0,0.113,0.058,0.113,0.174C26.419,38.118,26.305,38.344,26.25,38.568z"/> <path fill="#32475A" d="M30.76,38.568c0,0.111-0.11,0.17-0.168,0.17c-1.015,0-2.032,0-3.046,0c-0.056,0-0.113-0.059-0.113-0.17 c0.057-0.226,0.113-0.45,0.226-0.619c0-0.116,0.113-0.174,0.226-0.174c0.959,0,1.974,0,2.934,0c0.055,0,0.113,0.058,0.113,0.174 C30.874,38.118,30.819,38.344,30.76,38.568z"/> <path fill="#32475A" d="M35.331,38.568c0,0.111-0.113,0.17-0.168,0.17c-1.018,0-2.032,0-3.047,0c-0.057,0-0.113-0.059-0.113-0.17 c0.056-0.226,0.113-0.45,0.113-0.619c0-0.116,0.113-0.174,0.168-0.174c0.959,0,1.974,0,2.934,0c0.055,0,0.113,0.058,0.113,0.174 C35.387,38.118,35.331,38.344,35.331,38.568z"/> <path fill="#32475A" d="M39.505,38.568c0,0.111-0.055,0.17-0.168,0.17c-1.017,0-2.032,0-3.046,0c-0.058,0-0.171-0.059-0.113-0.17 c0-0.226,0.055-0.45,0.055-0.619c0-0.116,0.058-0.174,0.17-0.174c0.959,0,1.974,0,2.934,0c0.056,0,0.168,0.058,0.168,0.174 C39.563,38.118,39.563,38.344,39.505,38.568z"/> <path fill="#32475A" d="M44.074,38.568c0,0.111-0.055,0.17-0.111,0.17c-1.015,0-2.029,0-3.049,0c-0.053,0-0.168-0.059-0.168-0.17 c0-0.226,0-0.45,0-0.619c0-0.116,0.059-0.174,0.168-0.174c0.962,0,1.977,0,2.934,0c0.059,0,0.174,0.058,0.174,0.174 C44.021,38.118,44.021,38.344,44.074,38.568z"/> <path fill="#32475A" d="M48.589,38.568c0,0.111-0.058,0.17-0.114,0.17c-1.016,0-2.029,0-3.045,0c-0.058,0-0.168-0.059-0.168-0.17 c0-0.226-0.058-0.45-0.058-0.619c0-0.116,0.058-0.174,0.11-0.174c0.961,0,1.977,0,2.934,0c0.059,0,0.173,0.058,0.173,0.174 C48.475,38.118,48.531,38.344,48.589,38.568z"/> <path fill="#32475A" d="M52.82,38.568c0,0.111,0,0.17-0.113,0.17c-1.016,0-2.03,0-3.045,0c-0.059,0-0.174-0.059-0.174-0.17 c-0.053-0.226-0.109-0.45-0.168-0.619c0-0.116,0.059-0.174,0.115-0.174c0.957,0,1.973,0,2.935,0c0.056,0,0.168,0.058,0.168,0.174 C52.648,38.118,52.764,38.344,52.82,38.568z"/> <path fill="#32475A" d="M57.332,38.568c0.057,0.111,0,0.17-0.059,0.17c-1.016,0-2.029,0-3.045,0c-0.058,0-0.168-0.059-0.226-0.17 c-0.058-0.226-0.169-0.45-0.226-0.619c-0.059-0.116,0-0.174,0.113-0.174c0.957,0,1.973,0,2.935,0c0.054,0,0.168,0.058,0.222,0.174 C57.163,38.118,57.221,38.344,57.332,38.568z"/> <path fill="#32475A" d="M61.848,38.568c0.053,0.111,0,0.17-0.059,0.17c-1.016,0-2.029,0-3.048,0c-0.054,0-0.169-0.059-0.228-0.17 c-0.111-0.226-0.168-0.45-0.279-0.619c-0.058-0.116,0-0.174,0.059-0.174c0.957,0,1.973,0,2.934,0c0.055,0,0.168,0.058,0.224,0.174 C61.62,38.118,61.732,38.344,61.848,38.568z"/> <path fill="#32475A" d="M66.074,38.568c0.058,0.111,0.058,0.17-0.055,0.17c-1.015,0-2.033,0-3.047,0 c-0.057,0-0.17-0.059-0.228-0.17c-0.11-0.226-0.226-0.45-0.337-0.619c-0.059-0.116,0-0.174,0.058-0.174c0.958,0,1.974,0,2.935,0 c0.054,0,0.168,0.058,0.227,0.174C65.795,38.118,65.963,38.344,66.074,38.568z"/> <path fill="#32475A" d="M70.59,38.568c0.057,0.111,0.057,0.17-0.059,0.17c-1.016,0-2.029,0-3.045,0 c-0.057,0-0.225-0.059-0.282-0.17c-0.168-0.226-0.283-0.45-0.452-0.619c-0.059-0.116-0.059-0.174,0.059-0.174 c0.957,0,1.977,0,2.934,0c0.058,0,0.227,0.058,0.283,0.174C70.307,38.118,70.475,38.344,70.59,38.568z"/> <path fill="#32475A" d="M12.089,39.865c-0.056,0.115-0.169,0.173-0.282,0.173c-1.015,0-2.087,0-3.102,0 c-0.113,0-0.113-0.058-0.057-0.173c0.17-0.223,0.339-0.448,0.507-0.621c0.058-0.11,0.17-0.168,0.284-0.168c1.015,0,2.03,0,3.046,0 c0.056,0,0.113,0.058,0.056,0.168C12.427,39.417,12.259,39.643,12.089,39.865z"/> <path fill="#32475A" d="M16.772,39.865c-0.057,0.115-0.17,0.173-0.226,0.173c-1.015,0-2.087,0-3.102,0 c-0.113,0-0.113-0.058-0.058-0.173c0.113-0.223,0.281-0.448,0.395-0.621c0.057-0.11,0.17-0.168,0.283-0.168 c1.015,0,2.029,0,3.047,0c0.055,0,0.112,0.058,0.055,0.168C17.053,39.417,16.885,39.643,16.772,39.865z"/> <path fill="#32475A" d="M21.172,39.865c-0.057,0.115-0.168,0.173-0.226,0.173c-1.015,0-2.087,0-3.102,0 c-0.113,0-0.113-0.058-0.058-0.173c0.113-0.223,0.226-0.448,0.339-0.621c0.055-0.11,0.168-0.168,0.226-0.168 c1.015,0,2.03,0,3.046,0c0.055,0,0.113,0.058,0.055,0.168C21.341,39.417,21.227,39.643,21.172,39.865z"/> <path fill="#32475A" d="M25.798,39.865c-0.057,0.115-0.113,0.173-0.226,0.173c-1.015,0-2.087,0-3.102,0 c-0.113,0-0.113-0.058-0.113-0.173c0.113-0.223,0.168-0.448,0.281-0.621c0.056-0.11,0.113-0.168,0.226-0.168 c1.015,0,2.03,0,3.046,0c0.055,0,0.113,0.058,0.113,0.168C25.966,39.417,25.911,39.643,25.798,39.865z"/> <path fill="#32475A" d="M30.479,39.865c0,0.115-0.113,0.173-0.168,0.173c-1.017,0-2.087,0-3.104,0 c-0.113,0-0.113-0.058-0.113-0.173c0.058-0.223,0.113-0.448,0.226-0.621c0-0.11,0.113-0.168,0.226-0.168c1.015,0,2.031,0,3.046,0 c0.058,0,0.113,0.058,0.113,0.168C30.593,39.417,30.537,39.643,30.479,39.865z"/> <path fill="#32475A" d="M35.163,39.865c0,0.115-0.113,0.173-0.171,0.173c-1.015,0-2.087,0-3.102,0 c-0.112,0-0.17-0.058-0.112-0.173c0.055-0.223,0.112-0.448,0.112-0.621c0-0.11,0.113-0.168,0.169-0.168c1.015,0,2.031,0,3.046,0 c0.058,0,0.168,0.058,0.113,0.168C35.219,39.417,35.163,39.643,35.163,39.865z"/> <path fill="#32475A" d="M39.505,39.865c0,0.115-0.055,0.173-0.168,0.173c-1.017,0-2.087,0-3.104,0 c-0.113,0-0.168-0.058-0.113-0.173c0-0.223,0.058-0.448,0.058-0.621c0-0.11,0.055-0.168,0.168-0.168c1.017,0,2.031,0,3.046,0 c0.057,0,0.17,0.058,0.17,0.168C39.505,39.417,39.505,39.643,39.505,39.865z"/> <path fill="#32475A" d="M44.189,39.865c0,0.115-0.059,0.173-0.168,0.173c-1.02,0-2.088,0-3.106,0c-0.11,0-0.168-0.058-0.168-0.173 c0-0.223,0-0.448,0-0.621c0-0.11,0.058-0.168,0.168-0.168c1.021,0,2.034,0,3.049,0c0.058,0,0.168,0.058,0.168,0.168 C44.131,39.417,44.131,39.643,44.189,39.865z"/> <path fill="#32475A" d="M48.868,39.865c0,0.115-0.054,0.173-0.11,0.173c-1.015,0-2.088,0-3.104,0 c-0.114,0-0.168-0.058-0.168-0.173c0-0.223-0.057-0.448-0.057-0.621c0-0.11,0.057-0.168,0.109-0.168c1.016,0,2.034,0,3.049,0 c0.059,0,0.169,0.058,0.169,0.168C48.758,39.417,48.814,39.643,48.868,39.865z"/> <path fill="#32475A" d="M53.215,39.865c0,0.115,0,0.173-0.113,0.173c-1.017,0-2.088,0-3.104,0c-0.111,0-0.168-0.058-0.168-0.173 c-0.059-0.223-0.115-0.448-0.169-0.621c0-0.11,0.054-0.168,0.11-0.168c1.016,0,2.029,0,3.049,0c0.054,0,0.168,0.058,0.226,0.168 C53.046,39.417,53.157,39.643,53.215,39.865z"/> <path fill="#32475A" d="M57.895,39.865c0.059,0.115,0,0.173-0.11,0.173c-1.015,0-2.087,0-3.103,0 c-0.115,0-0.168-0.058-0.227-0.173c-0.057-0.223-0.168-0.448-0.227-0.621c-0.058-0.11,0-0.168,0.111-0.168c1.02,0,2.033,0,3.049,0 c0.057,0,0.168,0.058,0.227,0.168C57.672,39.417,57.783,39.643,57.895,39.865z"/> <path fill="#32475A" d="M62.521,39.865c0.058,0.115,0,0.173-0.055,0.173c-1.018,0-2.087,0-3.105,0 c-0.11,0-0.168-0.058-0.221-0.173c-0.115-0.223-0.174-0.448-0.283-0.621c-0.06-0.11,0-0.168,0.057-0.168c1.016,0,2.029,0,3.045,0 c0.057,0,0.168,0.058,0.227,0.168C62.295,39.417,62.409,39.643,62.521,39.865z"/> <path fill="#32475A" d="M66.921,39.865c0.058,0.115,0.058,0.173-0.054,0.173c-1.016,0-2.088,0-3.105,0 c-0.111,0-0.169-0.058-0.223-0.173c-0.114-0.223-0.227-0.448-0.341-0.621c-0.058-0.11,0-0.168,0.058-0.168 c1.016,0,2.029,0,3.044,0c0.058,0,0.228,0.058,0.283,0.168C66.643,39.417,66.752,39.643,66.921,39.865z"/> <path fill="#32475A" d="M71.547,39.865c0.059,0.115,0.059,0.173-0.054,0.173c-1.019,0-2.087,0-3.104,0 c-0.111,0-0.224-0.058-0.281-0.173c-0.168-0.223-0.282-0.448-0.45-0.621c-0.058-0.11-0.058-0.168,0.057-0.168 c1.017,0,2.03,0,3.045,0c0.058,0,0.228,0.058,0.283,0.168C71.268,39.417,71.436,39.643,71.547,39.865z"/> <path fill="#32475A" d="M20.72,41.448c-0.055,0.11-0.168,0.169-0.226,0.169c-4.343,0-8.63,0-12.975,0 c-0.113,0-0.113-0.059-0.056-0.169c0.168-0.226,0.337-0.452,0.508-0.62c0.055-0.116,0.168-0.17,0.281-0.17 c4.231,0,8.461,0,12.693,0c0.113,0,0.113,0.054,0.113,0.17C20.946,40.996,20.833,41.223,20.72,41.448z"/> <path fill="#32475A" d="M25.233,41.448c-0.056,0.11-0.113,0.169-0.226,0.169c-1.07,0-2.143,0-3.215,0 c-0.113,0-0.113-0.059-0.113-0.169c0.113-0.226,0.168-0.452,0.281-0.62c0.057-0.116,0.113-0.17,0.226-0.17 c1.072,0,2.087,0,3.159,0c0.113,0,0.113,0.054,0.113,0.17C25.403,40.996,25.346,41.223,25.233,41.448z"/> <path fill="#32475A" d="M54.004,41.448c0,0.11,0,0.169-0.111,0.169c-9.082,0-18.167,0-27.249,0c-0.113,0-0.113-0.059-0.113-0.169 c0.056-0.226,0.113-0.452,0.226-0.62c0-0.116,0.113-0.17,0.226-0.17c8.855,0,17.769,0,26.626,0c0.111,0,0.168,0.054,0.226,0.17 C53.893,40.996,53.947,41.223,54.004,41.448z"/> <path fill="#778184" d="M53.27,44.496c0.172,0.51-0.224,0.962-0.789,0.962c-8.35,0-16.696,0-25.046,0 c-0.563,0-0.902-0.452-0.789-0.962c0.113-0.448,0.226-0.848,0.395-1.296c0.168-0.511,0.733-0.962,1.241-0.962 c7.785,0,15.569,0,23.354,0c0.567,0,1.073,0.451,1.241,0.962C52.99,43.648,53.157,44.102,53.27,44.496z"/> <path fill="#32475A" d="M58.516,41.448c0.058,0.11,0,0.169-0.111,0.169c-1.071,0-2.146,0-3.217,0c-0.11,0-0.168-0.059-0.227-0.169 c-0.053-0.226-0.168-0.452-0.227-0.62c-0.053-0.116,0-0.17,0.115-0.17c1.072,0,2.088,0,3.159,0c0.11,0,0.168,0.054,0.226,0.17 C58.348,40.996,58.462,41.223,58.516,41.448z"/> <path fill="#32475A" d="M65.627,41.448c0.053,0.11,0,0.169-0.059,0.169c-1.86,0-3.668,0-5.529,0c-0.111,0-0.168-0.059-0.227-0.169 c-0.11-0.226-0.168-0.452-0.279-0.62c-0.057-0.116,0-0.17,0.111-0.17c1.805,0,3.61,0,5.414,0c0.114,0,0.227,0.054,0.227,0.17 C65.4,40.996,65.512,41.223,65.627,41.448z"/> <path fill="#32475A" d="M73.07,41.448c0.06,0.11,0.06,0.169-0.057,0.169c-1.861,0-3.664,0-5.525,0 c-0.115,0-0.227-0.059-0.283-0.169c-0.111-0.226-0.283-0.452-0.395-0.62c-0.059-0.116,0-0.17,0.058-0.17c1.804,0,3.606,0,5.415,0 c0.111,0,0.226,0.054,0.281,0.17C72.787,40.996,72.902,41.223,73.07,41.448z"/> </g> </g>  </g></g><g id="ProcessOnG1008"><path id="ProcessOnPath1009" d="M623.3916549682617 252.75L623.3916549682617 269.8166546821594L623.3916549682617 269.8166546821594L623.3916549682617 286.88330936431885" stroke="#323232" stroke-width="2.0" stroke-dasharray="none" fill="none"/></g><g id="ProcessOnG1010" transform="matrix(1.0,0.0,0.0,1.0,585.8916549682617,180.75)" opacity="1.0"><g id="ProcessOnG1012" transform="matrix(1.0,0.0,0.0,1.0,0.0,0.0)"> <g> <path fill="#7D7C7C" d="M63.244,29.542c6.9,0,11.756,4.349,11.756,10.614v13.556h-6.135v-9.207h-1.66v9.207h-9.327 c-0.64-6.905-6.133-11.509-13.927-11.509h-5.365v-3.71c6.004-0.511,10.73-2.813,11.243-8.823c0.256,0,0.383,0,0.51,0h12.905V29.542 z"/> <path fill="#7D7C7C" d="M24.531,29.542c0.255,0,0.383,0,0.511,0c0.512,6.011,5.238,8.313,11.244,8.824v3.708h-5.239 c-7.794,0-13.287,4.732-13.927,11.511H8.049v-9.209H6.388v9.209H0V40.156c0-6.266,4.854-10.614,11.754-10.614H24.531z"/> <path fill="#7D7C7C" d="M43.951,47.829c6.898,0,11.755,4.35,11.755,10.614V72h-6.133v-9.207h-1.661V72H27.214v-9.207h-1.66V72 h-6.389V58.444c0-6.266,4.854-10.615,11.754-10.615H43.951L43.951,47.829z"/> <path fill="#7D7C7C" d="M18.143,3.197l10.222,7.29v3.197c0,5.755-4.601,10.486-10.222,10.486c-5.622,0-10.222-4.731-10.222-10.87 v-2.94L18.143,3.197z"/> <path fill="#7D7C7C" d="M56.729,3.197l10.222,7.29v3.197c0,5.755-4.601,10.486-10.222,10.486s-10.223-4.731-10.223-10.87v-2.94 L56.729,3.197z"/> <path fill="#7D7C7C" d="M37.436,17.393l9.07,6.395v2.813c0,5.115-4.087,9.208-9.07,9.208c-4.982,0-9.071-4.093-9.071-9.72v-2.431 L37.436,17.393z"/> <path fill="#D2D3D3" d="M56.855,0c5.621,0,10.223,4.731,10.223,10.359c0,5.755-4.602,10.486-10.223,10.486 s-10.222-4.732-10.222-10.486C46.634,4.604,51.234,0,56.855,0z"/> <path fill="#D2D3D3" d="M37.436,14.195c4.983,0,9.07,4.094,9.07,9.209s-4.087,9.208-9.07,9.208c-4.982,0-9.071-4.092-9.071-9.208 C28.364,18.416,32.453,14.195,37.436,14.195z"/> <path fill="#D2D3D3" d="M63.244,26.345c6.9,0,11.756,4.349,11.756,10.614v13.557h-6.135v-9.208h-1.66v9.208h-9.327 c-0.64-6.905-6.133-11.51-13.927-11.51h-5.365v-1.15c6.004-0.514,10.73-5.372,11.243-11.382c0.256,0,0.383,0,0.51,0h12.905V26.345z "/> <path fill="#D2D3D3" d="M24.531,26.345c0.255,0,0.383,0,0.511,0c0.512,6.011,5.238,10.87,11.244,11.384v1.149h-5.239 c-7.794,0-13.287,4.732-13.927,11.51H8.049v-9.209H6.388v9.209H0V36.959c0-6.266,4.854-10.614,11.754-10.614H24.531z"/> <path fill="#D2D3D3" d="M43.951,44.632c6.898,0,11.755,4.349,11.755,10.614v13.556h-6.133v-9.206h-1.661v9.206H27.214v-9.206h-1.66 v9.206h-6.389V55.246c0-6.266,4.854-10.613,11.754-10.613L43.951,44.632L43.951,44.632z"/> <path fill="#D2D3D3" d="M18.143,0c5.621,0,10.222,4.731,10.222,10.359c0,5.755-4.601,10.486-10.222,10.486 c-5.622,0-10.222-4.732-10.222-10.486C7.921,4.731,12.521,0,18.143,0z"/> </g>  </g><g id="ProcessOnG1013" transform="matrix(1.0,0.0,0.0,1.0,-20.0,78.25)"><text id="ProcessOnText1014" fill="#000000" font-size="14" x="56.5" y="14.350000000000001" font-family="宋体" font-weight="normal" font-style="normal" text-decoration="none" family="宋体" text-anchor="middle" size="14">用户</text></g></g><g id="ProcessOnG1015" transform="matrix(1.0,0.0,0.0,1.0,567.125,524.0916428565979)" opacity="1.0"><g id="ProcessOnG1017" transform="matrix(1.0,0.0,0.0,1.0,0.0,0.0)"> <g> <g> <path fill="#1B2E3D" d="M75.757,65H49.973c-0.711,0-1.242-0.592-1.242-1.24V1.241C48.73,0.532,49.322,0,49.973,0h25.784 C76.467,0,77,0.591,77,1.241V63.7C77,64.408,76.407,65,75.757,65z"/> <path fill="#D8DDE1" d="M74.279,62.104H51.154c-0.709,0-1.24-0.59-1.24-1.24V2.482c0-0.709,0.592-1.241,1.24-1.241h23.125 c0.709,0,1.24,0.591,1.24,1.241v58.381C75.52,61.574,74.93,62.104,74.279,62.104z"/> <path fill="#36485C" d="M72.801,6.086h-19.93c-0.355,0-0.594-0.296-0.594-0.591V4.787c0-0.354,0.298-0.591,0.594-0.591h19.93 c0.355,0,0.592,0.295,0.592,0.591v0.709C73.393,5.791,73.156,6.086,72.801,6.086z"/> <path fill="#36485C" d="M72.918,14.595h-19.93c-0.355,0-0.592-0.294-0.592-0.59v-2.364c0-0.354,0.297-0.591,0.592-0.591h19.93 c0.355,0,0.592,0.296,0.592,0.591v2.364C73.51,14.301,73.271,14.595,72.918,14.595z"/> <g> <rect x="48.671" y="46.092" fill="#495A5E" width="28.329" height="0.59"/> </g> <g> <rect x="48.671" y="8.272" fill="#495A5E" width="28.329" height="0.591"/> </g> <ellipse fill="#2A6ED1" cx="62.982" cy="34.154" rx="1.539" ry="1.595"/> </g> <path fill="#1B2E3D" d="M31.048,59.386h-4.022c-0.65,0-1.183-0.53-1.183-1.182V51.23c0-0.647,0.533-1.182,1.183-1.182h4.022 c0.65,0,1.182,0.533,1.182,1.182v6.974C32.23,58.855,31.698,59.386,31.048,59.386z"/> <path fill="#324556" d="M57.426,53.771H0.591C0.237,53.771,0,53.477,0,53.182V17.728c0-0.355,0.295-0.591,0.591-0.591h56.834 c0.353,0,0.591,0.295,0.591,0.591v35.454C58.016,53.536,57.777,53.771,57.426,53.771z"/> <path fill="#FFFFFF" d="M56.359,52.59H1.715c-0.355,0-0.592-0.296-0.592-0.59V18.968c0-0.354,0.296-0.591,0.592-0.591h54.645 c0.354,0,0.591,0.295,0.591,0.591V52C56.95,52.294,56.654,52.59,56.359,52.59z"/> <path fill="#324556" d="M42.462,59.979H15.554c-0.237,0-0.414-0.18-0.414-0.414v-0.828c0-0.235,0.177-0.412,0.414-0.412h26.908 c0.237,0,0.413,0.177,0.413,0.412v0.826C42.875,59.799,42.699,59.979,42.462,59.979z"/> </g>  </g><g id="ProcessOnG1018" transform="matrix(1.0,0.0,0.0,1.0,-20.0,70.625)"><text id="ProcessOnText1019" fill="#000000" font-size="15" x="57.5" y="15.375" font-family="宋体" font-weight="normal" font-style="normal" text-decoration="none" family="宋体" text-anchor="middle" size="15">管理计算机</text></g></g><g id="ProcessOnG1020" transform="matrix(1.0,0.0,0.0,1.0,574.8916549682617,317.45833349227905)" opacity="1.0"><path id="ProcessOnPath1021" d="M0.0 0.0L97.0 0.0L97.0 51.0L0.0 51.0Z" stroke="none" stroke-width="0.0" stroke-dasharray="none" opacity="1.0" fill="none"/><g id="ProcessOnG1022" transform="matrix(1.0,0.0,0.0,1.0,0.0,17.375)"><text id="ProcessOnText1023" fill="#000000" font-size="13" x="47.5" y="13.325" font-family="宋体" font-weight="normal" font-style="normal" text-decoration="none" family="宋体" text-anchor="middle" size="13">客服端</text></g></g><g id="ProcessOnG1024" transform="matrix(1.0,0.0,0.0,1.0,252.34996795654297,171.26664209365845)" opacity="1.0"><path id="ProcessOnPath1025" d="M0.0 227.0C0.0 -75.66666666666667 307.50001525878906 -75.66666666666667 307.50001525878906 227.0C307.50001525878906 529.6666666666666 0.0 529.6666666666666 0.0 227.0Z" stroke="#323232" stroke-width="2.0" stroke-dasharray="none" opacity="1.0" fill="#ffffff"/></g><g id="ProcessOnG1026" transform="matrix(1.0,0.0,0.0,1.0,388.0999755859375,495.0916428565979)" opacity="1.0"><g id="ProcessOnG1028" transform="matrix(1.0,0.0,0.0,1.0,0.0,0.0)"> <g> <path fill="#1E3947" d="M33.279,80H2.716C1.197,80,0,78.795,0,77.283V2.718C0,1.197,1.197,0,2.716,0h30.563 C34.793,0,36,1.197,36,2.718v74.565C36,78.705,34.793,80,33.279,80z"/> <rect x="0.081" y="6.398" fill="#DCE9F7" width="35.919" height="0.884"/> <rect x="0.081" y="69.518" fill="#DCE9F7" width="35.918" height="0.884"/> <rect y="51.126" fill="#1A6684" width="36" height="0.481"/> <g> <rect x="5.2" y="11.68" fill="#236A8E" width="25.751" height="3.119"/> <rect x="5.2" y="15.608" fill="#236A8E" width="25.751" height="3.114"/> <rect x="5.833" y="12.877" fill="#DCE9F7" width="4.648" height="0.966"/> <rect x="5.833" y="16.72" fill="#DCE9F7" width="4.648" height="0.953"/> </g> <g> <rect x="5.2" y="20.642" fill="#236A8E" width="25.751" height="3.121"/> <rect x="5.2" y="24.557" fill="#236A8E" width="25.751" height="3.116"/> <rect x="5.833" y="21.841" fill="#DCE9F7" width="4.648" height="0.956"/> <rect x="5.833" y="25.687" fill="#DCE9F7" width="4.648" height="0.953"/> </g> <g> <rect x="5.2" y="31.277" fill="#236A8E" width="25.751" height="3.114"/> <rect x="5.2" y="35.201" fill="#236A8E" width="25.751" height="3.119"/> <rect x="5.833" y="32.483" fill="#DCE9F7" width="4.648" height="0.957"/> <rect x="5.833" y="36.318" fill="#DCE9F7" width="4.648" height="0.964"/> </g> <path opacity="0.62" fill="#FF466A" enable-background="new " d="M31.675,72.958c0.734,0,1.358,0.604,1.358,1.367 c0,0.744-0.624,1.349-1.358,1.349c-0.738,0-1.363-0.604-1.363-1.349C30.312,73.563,30.937,72.958,31.675,72.958z"/> <path opacity="0.62" fill="#43D190" enable-background="new " d="M26.629,72.958c0.759,0,1.364,0.604,1.364,1.367 c0,0.744-0.605,1.349-1.364,1.349c-0.746,0-1.352-0.604-1.352-1.349C25.277,73.563,25.883,72.958,26.629,72.958z"/> <g> <rect x="2.716" y="52.233" fill="#041323" width="1.36" height="16.405"/> <rect x="4.959" y="52.233" fill="#041323" width="1.358" height="16.405"/> <rect x="7.122" y="52.233" fill="#041323" width="1.358" height="16.405"/> <rect x="9.353" y="52.233" fill="#041323" width="1.363" height="16.405"/> <rect x="11.517" y="52.233" fill="#041323" width="1.358" height="16.405"/> <rect x="13.76" y="52.233" fill="#041323" width="1.358" height="16.405"/> <rect x="15.911" y="52.233" fill="#041323" width="1.366" height="16.405"/> <rect x="18.156" y="52.233" fill="#041323" width="1.376" height="16.405"/> <rect x="20.38" y="52.233" fill="#041323" width="1.377" height="16.405"/> <rect x="22.562" y="52.233" fill="#041323" width="1.349" height="16.405"/> <rect x="24.795" y="52.233" fill="#041323" width="1.365" height="16.405"/> <rect x="26.941" y="52.233" fill="#041323" width="1.374" height="16.405"/> <rect x="29.2" y="52.233" fill="#041323" width="1.349" height="16.405"/> <rect x="31.434" y="52.233" fill="#041323" width="1.378" height="16.405"/> </g> </g>  </g></g><g id="ProcessOnG1029" transform="matrix(1.0,0.0,0.0,1.0,501.0999755859375,358.26664209365845)" opacity="1.0"><g id="ProcessOnG1031" transform="matrix(1.0,0.0,0.0,1.0,0.0,0.0)"> <g> <path fill="#1E3947" d="M33.279,80H2.716C1.197,80,0,78.795,0,77.283V2.718C0,1.197,1.197,0,2.716,0h30.563 C34.793,0,36,1.197,36,2.718v74.565C36,78.705,34.793,80,33.279,80z"/> <rect x="0.081" y="6.398" fill="#DCE9F7" width="35.919" height="0.884"/> <rect x="0.081" y="69.518" fill="#DCE9F7" width="35.918" height="0.884"/> <rect y="51.126" fill="#1A6684" width="36" height="0.481"/> <g> <rect x="5.2" y="11.68" fill="#236A8E" width="25.751" height="3.119"/> <rect x="5.2" y="15.608" fill="#236A8E" width="25.751" height="3.114"/> <rect x="5.833" y="12.877" fill="#DCE9F7" width="4.648" height="0.966"/> <rect x="5.833" y="16.72" fill="#DCE9F7" width="4.648" height="0.953"/> </g> <g> <rect x="5.2" y="20.642" fill="#236A8E" width="25.751" height="3.121"/> <rect x="5.2" y="24.557" fill="#236A8E" width="25.751" height="3.116"/> <rect x="5.833" y="21.841" fill="#DCE9F7" width="4.648" height="0.956"/> <rect x="5.833" y="25.687" fill="#DCE9F7" width="4.648" height="0.953"/> </g> <g> <rect x="5.2" y="31.277" fill="#236A8E" width="25.751" height="3.114"/> <rect x="5.2" y="35.201" fill="#236A8E" width="25.751" height="3.119"/> <rect x="5.833" y="32.483" fill="#DCE9F7" width="4.648" height="0.957"/> <rect x="5.833" y="36.318" fill="#DCE9F7" width="4.648" height="0.964"/> </g> <path opacity="0.62" fill="#FF466A" enable-background="new " d="M31.675,72.958c0.734,0,1.358,0.604,1.358,1.367 c0,0.744-0.624,1.349-1.358,1.349c-0.738,0-1.363-0.604-1.363-1.349C30.312,73.563,30.937,72.958,31.675,72.958z"/> <path opacity="0.62" fill="#43D190" enable-background="new " d="M26.629,72.958c0.759,0,1.364,0.604,1.364,1.367 c0,0.744-0.605,1.349-1.364,1.349c-0.746,0-1.352-0.604-1.352-1.349C25.277,73.563,25.883,72.958,26.629,72.958z"/> <g> <rect x="2.716" y="52.233" fill="#041323" width="1.36" height="16.405"/> <rect x="4.959" y="52.233" fill="#041323" width="1.358" height="16.405"/> <rect x="7.122" y="52.233" fill="#041323" width="1.358" height="16.405"/> <rect x="9.353" y="52.233" fill="#041323" width="1.363" height="16.405"/> <rect x="11.517" y="52.233" fill="#041323" width="1.358" height="16.405"/> <rect x="13.76" y="52.233" fill="#041323" width="1.358" height="16.405"/> <rect x="15.911" y="52.233" fill="#041323" width="1.366" height="16.405"/> <rect x="18.156" y="52.233" fill="#041323" width="1.376" height="16.405"/> <rect x="20.38" y="52.233" fill="#041323" width="1.377" height="16.405"/> <rect x="22.562" y="52.233" fill="#041323" width="1.349" height="16.405"/> <rect x="24.795" y="52.233" fill="#041323" width="1.365" height="16.405"/> <rect x="26.941" y="52.233" fill="#041323" width="1.374" height="16.405"/> <rect x="29.2" y="52.233" fill="#041323" width="1.349" height="16.405"/> <rect x="31.434" y="52.233" fill="#041323" width="1.378" height="16.405"/> </g> </g>  </g></g><g id="ProcessOnG1032" transform="matrix(1.0,0.0,0.0,1.0,278.2374801635742,358.26664209365845)" opacity="1.0"><g id="ProcessOnG1034" transform="matrix(0.99236085679796,0.0,0.0,0.9831250190734864,0.0,0.0)"> <g> <path fill="#1E3947" d="M33.279,80H2.716C1.197,80,0,78.795,0,77.283V2.718C0,1.197,1.197,0,2.716,0h30.563 C34.793,0,36,1.197,36,2.718v74.565C36,78.705,34.793,80,33.279,80z"/> <rect x="0.081" y="6.398" fill="#DCE9F7" width="35.919" height="0.884"/> <rect x="0.081" y="69.518" fill="#DCE9F7" width="35.918" height="0.884"/> <rect y="51.126" fill="#1A6684" width="36" height="0.481"/> <g> <rect x="5.2" y="11.68" fill="#236A8E" width="25.751" height="3.119"/> <rect x="5.2" y="15.608" fill="#236A8E" width="25.751" height="3.114"/> <rect x="5.833" y="12.877" fill="#DCE9F7" width="4.648" height="0.966"/> <rect x="5.833" y="16.72" fill="#DCE9F7" width="4.648" height="0.953"/> </g> <g> <rect x="5.2" y="20.642" fill="#236A8E" width="25.751" height="3.121"/> <rect x="5.2" y="24.557" fill="#236A8E" width="25.751" height="3.116"/> <rect x="5.833" y="21.841" fill="#DCE9F7" width="4.648" height="0.956"/> <rect x="5.833" y="25.687" fill="#DCE9F7" width="4.648" height="0.953"/> </g> <g> <rect x="5.2" y="31.277" fill="#236A8E" width="25.751" height="3.114"/> <rect x="5.2" y="35.201" fill="#236A8E" width="25.751" height="3.119"/> <rect x="5.833" y="32.483" fill="#DCE9F7" width="4.648" height="0.957"/> <rect x="5.833" y="36.318" fill="#DCE9F7" width="4.648" height="0.964"/> </g> <path opacity="0.62" fill="#FF466A" enable-background="new " d="M31.675,72.958c0.734,0,1.358,0.604,1.358,1.367 c0,0.744-0.624,1.349-1.358,1.349c-0.738,0-1.363-0.604-1.363-1.349C30.312,73.563,30.937,72.958,31.675,72.958z"/> <path opacity="0.62" fill="#43D190" enable-background="new " d="M26.629,72.958c0.759,0,1.364,0.604,1.364,1.367 c0,0.744-0.605,1.349-1.364,1.349c-0.746,0-1.352-0.604-1.352-1.349C25.277,73.563,25.883,72.958,26.629,72.958z"/> <g> <rect x="2.716" y="52.233" fill="#041323" width="1.36" height="16.405"/> <rect x="4.959" y="52.233" fill="#041323" width="1.358" height="16.405"/> <rect x="7.122" y="52.233" fill="#041323" width="1.358" height="16.405"/> <rect x="9.353" y="52.233" fill="#041323" width="1.363" height="16.405"/> <rect x="11.517" y="52.233" fill="#041323" width="1.358" height="16.405"/> <rect x="13.76" y="52.233" fill="#041323" width="1.358" height="16.405"/> <rect x="15.911" y="52.233" fill="#041323" width="1.366" height="16.405"/> <rect x="18.156" y="52.233" fill="#041323" width="1.376" height="16.405"/> <rect x="20.38" y="52.233" fill="#041323" width="1.377" height="16.405"/> <rect x="22.562" y="52.233" fill="#041323" width="1.349" height="16.405"/> <rect x="24.795" y="52.233" fill="#041323" width="1.365" height="16.405"/> <rect x="26.941" y="52.233" fill="#041323" width="1.374" height="16.405"/> <rect x="29.2" y="52.233" fill="#041323" width="1.349" height="16.405"/> <rect x="31.434" y="52.233" fill="#041323" width="1.378" height="16.405"/> </g> </g>  </g></g><g id="ProcessOnG1035" transform="matrix(1.0,0.0,0.0,1.0,340.5999755859375,377.26664209365845)" opacity="1.0"><path id="ProcessOnPath1036" d="M0.0 0.0L131.0 0.0L131.0 33.0L0.0 33.0Z" stroke="none" stroke-width="0.0" stroke-dasharray="none" opacity="1.0" fill="none"/><g id="ProcessOnG1037" transform="matrix(1.0,0.0,0.0,1.0,0.0,-1.0)"><text id="ProcessOnText1038" fill="#000000" font-size="14" x="64.5" y="14.350000000000001" font-family="宋体" font-weight="normal" font-style="normal" text-decoration="none" family="宋体" text-anchor="middle" size="14">分布式数据库节点集</text><text id="ProcessOnText1039" fill="#000000" font-size="14" x="64.5" y="31.85" font-family="宋体" font-weight="normal" font-style="normal" text-decoration="none" family="宋体" text-anchor="middle" size="14">群</text></g></g><g id="ProcessOnG1040" transform="matrix(1.0,0.0,0.0,1.0,320.0999755859375,581.5916428565979)" opacity="1.0"><path id="ProcessOnPath1041" d="M0.0 0.0L172.0 0.0L172.0 20.0L0.0 20.0Z" stroke="none" stroke-width="0.0" stroke-dasharray="none" opacity="1.0" fill="none"/><g id="ProcessOnG1042" transform="matrix(1.0,0.0,0.0,1.0,0.0,0.625)"><text id="ProcessOnText1043" fill="#000000" font-size="15" x="85.0" y="15.375" font-family="宋体" font-weight="normal" font-style="normal" text-decoration="none" family="宋体" text-anchor="middle" size="15">分布式管理节点</text></g></g><g id="ProcessOnG1044"><path id="ProcessOnPath1045" d="M296.0999755859375 436.91664361953735L388.0999755859375 535.0916428565979" stroke="#323232" stroke-width="2.0" stroke-dasharray="none" fill="none"/></g><g id="ProcessOnG1046"><path id="ProcessOnPath1047" d="M424.0999755859375 535.0916428565979L519.0999755859375 438.26664209365845" stroke="#323232" stroke-width="2.0" stroke-dasharray="none" fill="none"/></g><g id="ProcessOnG1048" transform="matrix(1.0,0.0,0.0,1.0,388.2374801635742,221.6083083152771)" opacity="1.0"><g id="ProcessOnG1050" transform="matrix(0.99236085679796,0.0,0.0,0.9831250190734864,0.0,0.0)"> <g> <path fill="#1E3947" d="M33.279,80H2.716C1.197,80,0,78.795,0,77.283V2.718C0,1.197,1.197,0,2.716,0h30.563 C34.793,0,36,1.197,36,2.718v74.565C36,78.705,34.793,80,33.279,80z"/> <rect x="0.081" y="6.398" fill="#DCE9F7" width="35.919" height="0.884"/> <rect x="0.081" y="69.518" fill="#DCE9F7" width="35.918" height="0.884"/> <rect y="51.126" fill="#1A6684" width="36" height="0.481"/> <g> <rect x="5.2" y="11.68" fill="#236A8E" width="25.751" height="3.119"/> <rect x="5.2" y="15.608" fill="#236A8E" width="25.751" height="3.114"/> <rect x="5.833" y="12.877" fill="#DCE9F7" width="4.648" height="0.966"/> <rect x="5.833" y="16.72" fill="#DCE9F7" width="4.648" height="0.953"/> </g> <g> <rect x="5.2" y="20.642" fill="#236A8E" width="25.751" height="3.121"/> <rect x="5.2" y="24.557" fill="#236A8E" width="25.751" height="3.116"/> <rect x="5.833" y="21.841" fill="#DCE9F7" width="4.648" height="0.956"/> <rect x="5.833" y="25.687" fill="#DCE9F7" width="4.648" height="0.953"/> </g> <g> <rect x="5.2" y="31.277" fill="#236A8E" width="25.751" height="3.114"/> <rect x="5.2" y="35.201" fill="#236A8E" width="25.751" height="3.119"/> <rect x="5.833" y="32.483" fill="#DCE9F7" width="4.648" height="0.957"/> <rect x="5.833" y="36.318" fill="#DCE9F7" width="4.648" height="0.964"/> </g> <path opacity="0.62" fill="#FF466A" enable-background="new " d="M31.675,72.958c0.734,0,1.358,0.604,1.358,1.367 c0,0.744-0.624,1.349-1.358,1.349c-0.738,0-1.363-0.604-1.363-1.349C30.312,73.563,30.937,72.958,31.675,72.958z"/> <path opacity="0.62" fill="#43D190" enable-background="new " d="M26.629,72.958c0.759,0,1.364,0.604,1.364,1.367 c0,0.744-0.605,1.349-1.364,1.349c-0.746,0-1.352-0.604-1.352-1.349C25.277,73.563,25.883,72.958,26.629,72.958z"/> <g> <rect x="2.716" y="52.233" fill="#041323" width="1.36" height="16.405"/> <rect x="4.959" y="52.233" fill="#041323" width="1.358" height="16.405"/> <rect x="7.122" y="52.233" fill="#041323" width="1.358" height="16.405"/> <rect x="9.353" y="52.233" fill="#041323" width="1.363" height="16.405"/> <rect x="11.517" y="52.233" fill="#041323" width="1.358" height="16.405"/> <rect x="13.76" y="52.233" fill="#041323" width="1.358" height="16.405"/> <rect x="15.911" y="52.233" fill="#041323" width="1.366" height="16.405"/> <rect x="18.156" y="52.233" fill="#041323" width="1.376" height="16.405"/> <rect x="20.38" y="52.233" fill="#041323" width="1.377" height="16.405"/> <rect x="22.562" y="52.233" fill="#041323" width="1.349" height="16.405"/> <rect x="24.795" y="52.233" fill="#041323" width="1.365" height="16.405"/> <rect x="26.941" y="52.233" fill="#041323" width="1.374" height="16.405"/> <rect x="29.2" y="52.233" fill="#041323" width="1.349" height="16.405"/> <rect x="31.434" y="52.233" fill="#041323" width="1.378" height="16.405"/> </g> </g>  </g></g><g id="ProcessOnG1051"><path id="ProcessOnPath1052" d="M296.0999755859375 358.26664209365845L388.2374801635742 260.93330907821655" stroke="#323232" stroke-width="2.0" stroke-dasharray="none" fill="none"/></g><g id="ProcessOnG1053"><path id="ProcessOnPath1054" d="M423.9624710083008 260.93330907821655L519.0999755859375 358.26664209365845" stroke="#323232" stroke-width="2.0" stroke-dasharray="none" fill="none"/></g><g id="ProcessOnG1055"><path id="ProcessOnPath1056" d="M567.125 556.5916428565979L423.59999084472656 559.6000003814697" stroke="#323232" stroke-width="2.0" stroke-dasharray="none" fill="none"/></g><g id="ProcessOnG1057"><path id="ProcessOnPath1058" d="M537.0999755859375 398.26664209365845L623.3916549682617 398.26664209365845L623.3916549682617 337.5360443263767" stroke="#323232" stroke-width="2.0" stroke-dasharray="none" fill="none" marker-end="url(#ProcessOnMarker1059)"/></g></g></g></svg>