<svg xmlns="http://www.w3.org/2000/svg" xmlns:xlink="http://www.w3.org/1999/xlink" id="processonSvg1000" viewBox="373.59999084472656 65.5999984741211 403.40000915527344 623.2000007629395" width="403.40000915527344" height="623.2000007629395"><defs id="ProcessOnDefs1001"><marker id="ProcessOnMarker1016" markerUnits="userSpaceOnUse" orient="auto" markerWidth="16.23606797749979" markerHeight="10.550836550532098" viewBox="-1.0 -1.3763819204711736 16.23606797749979 10.550836550532098" refX="-1.0" refY="3.8990363547948754"><path id="ProcessOnPath1017" d="M12.0 3.8990363547948754L0.0 7.798072709589751V0.0Z" stroke="#323232" stroke-width="2.0" fill="#323232" transform="matrix(1.0,0.0,0.0,1.0,0.0,0.0)"/></marker><marker id="ProcessOnMarker1059" markerUnits="userSpaceOnUse" orient="auto" markerWidth="16.23606797749979" markerHeight="10.550836550532098" viewBox="-1.0 -1.3763819204711736 16.23606797749979 10.550836550532098" refX="-1.0" refY="3.8990363547948754"><path id="ProcessOnPath1060" d="M12.0 3.8990363547948754L0.0 7.798072709589751V0.0Z" stroke="#323232" stroke-width="2.0" fill="#323232" transform="matrix(1.0,0.0,0.0,1.0,0.0,0.0)"/></marker><marker id="ProcessOnMarker1063" markerUnits="userSpaceOnUse" orient="auto" markerWidth="16.23606797749979" markerHeight="10.550836550532098" viewBox="-1.0 -1.3763819204711736 16.23606797749979 10.550836550532098" refX="-1.0" refY="3.8990363547948754"><path id="ProcessOnPath1064" d="M12.0 3.8990363547948754L0.0 7.798072709589751V0.0Z" stroke="#323232" stroke-width="2.0" fill="#323232" transform="matrix(1.0,0.0,0.0,1.0,0.0,0.0)"/></marker><marker id="ProcessOnMarker1070" markerUnits="userSpaceOnUse" orient="auto" markerWidth="16.23606797749979" markerHeight="10.550836550532098" viewBox="-1.0 -1.3763819204711736 16.23606797749979 10.550836550532098" refX="-1.0" refY="3.8990363547948754"><path id="ProcessOnPath1071" d="M12.0 3.8990363547948754L0.0 7.798072709589751V0.0Z" stroke="#323232" stroke-width="2.0" fill="#323232" transform="matrix(1.0,0.0,0.0,1.0,0.0,0.0)"/></marker><marker id="ProcessOnMarker1077" markerUnits="userSpaceOnUse" orient="auto" markerWidth="16.23606797749979" markerHeight="10.550836550532098" viewBox="-1.0 -1.3763819204711736 16.23606797749979 10.550836550532098" refX="-1.0" refY="3.8990363547948754"><path id="ProcessOnPath1078" d="M12.0 3.8990363547948754L0.0 7.798072709589751V0.0Z" stroke="#323232" stroke-width="2.0" fill="#323232" transform="matrix(1.0,0.0,0.0,1.0,0.0,0.0)"/></marker><marker id="ProcessOnMarker1081" markerUnits="userSpaceOnUse" orient="auto" markerWidth="16.23606797749979" markerHeight="10.550836550532098" viewBox="-1.0 -1.3763819204711736 16.23606797749979 10.550836550532098" refX="-1.0" refY="3.8990363547948754"><path id="ProcessOnPath1082" d="M12.0 3.8990363547948754L0.0 7.798072709589751V0.0Z" stroke="#323232" stroke-width="2.0" fill="#323232" transform="matrix(1.0,0.0,0.0,1.0,0.0,0.0)"/></marker><marker id="ProcessOnMarker1085" markerUnits="userSpaceOnUse" orient="auto" markerWidth="16.23606797749979" markerHeight="10.550836550532098" viewBox="-1.0 -1.3763819204711736 16.23606797749979 10.550836550532098" refX="-1.0" refY="3.8990363547948754"><path id="ProcessOnPath1086" d="M12.0 3.8990363547948754L0.0 7.798072709589751V0.0Z" stroke="#323232" stroke-width="2.0" fill="#323232" transform="matrix(1.0,0.0,0.0,1.0,0.0,0.0)"/></marker><marker id="ProcessOnMarker1089" markerUnits="userSpaceOnUse" orient="auto" markerWidth="16.23606797749979" markerHeight="10.550836550532098" viewBox="-1.0 -1.3763819204711736 16.23606797749979 10.550836550532098" refX="-1.0" refY="3.8990363547948754"><path id="ProcessOnPath1090" d="M12.0 3.8990363547948754L0.0 7.798072709589751V0.0Z" stroke="#323232" stroke-width="2.0" fill="#323232" transform="matrix(1.0,0.0,0.0,1.0,0.0,0.0)"/></marker><marker id="ProcessOnMarker1093" markerUnits="userSpaceOnUse" orient="auto" markerWidth="16.23606797749979" markerHeight="10.550836550532098" viewBox="-1.0 -1.3763819204711736 16.23606797749979 10.550836550532098" refX="-1.0" refY="3.8990363547948754"><path id="ProcessOnPath1094" d="M12.0 3.8990363547948754L0.0 7.798072709589751V0.0Z" stroke="#323232" stroke-width="2.0" fill="#323232" transform="matrix(1.0,0.0,0.0,1.0,0.0,0.0)"/></marker><marker id="ProcessOnMarker1097" markerUnits="userSpaceOnUse" orient="auto" markerWidth="16.23606797749979" markerHeight="10.550836550532098" viewBox="-1.0 -1.3763819204711736 16.23606797749979 10.550836550532098" refX="-1.0" refY="3.8990363547948754"><path id="ProcessOnPath1098" d="M12.0 3.8990363547948754L0.0 7.798072709589751V0.0Z" stroke="#323232" stroke-width="2.0" fill="#323232" transform="matrix(1.0,0.0,0.0,1.0,0.0,0.0)"/></marker><marker id="ProcessOnMarker1101" markerUnits="userSpaceOnUse" orient="auto" markerWidth="16.23606797749979" markerHeight="10.550836550532098" viewBox="-1.0 -1.3763819204711736 16.23606797749979 10.550836550532098" refX="-1.0" refY="3.8990363547948754"><path id="ProcessOnPath1102" d="M12.0 3.8990363547948754L0.0 7.798072709589751V0.0Z" stroke="#323232" stroke-width="2.0" fill="#323232" transform="matrix(1.0,0.0,0.0,1.0,0.0,0.0)"/></marker></defs><g id="ProcessOnG1002"><path id="ProcessOnPath1003" d="M373.59999084472656 65.5999984741211H777.0V688.7999992370605H373.59999084472656V65.5999984741211Z" fill="none"/><g id="ProcessOnG1004"><g id="ProcessOnG1005" transform="matrix(1.0,0.0,0.0,1.0,451.2999954223633,85.5999984741211)" opacity="1.0"><path id="ProcessOnPath1006" d="M16.666666666666668 0.0L83.33333333333333 0.0C105.55555555555556 0.0 105.55555555555556 50.0 83.33333333333333 50.0L16.666666666666668 50.0C-5.555555555555556 50.0 -5.555555555555556 0.0 16.666666666666668 0.0Z" stroke="#323232" stroke-width="2.0" stroke-dasharray="none" opacity="1.0" fill="#ffffff"/><g id="ProcessOnG1007" transform="matrix(1.0,0.0,0.0,1.0,10.0,16.25)"><text id="ProcessOnText1008" fill="#000000" font-size="14" x="39.0" y="14.350000000000001" font-family="宋体" font-weight="normal" font-style="normal" text-decoration="none" family="宋体" text-anchor="middle" size="14">开始</text></g></g><g id="ProcessOnG1009" transform="matrix(1.0,0.0,0.0,1.0,425.59999084472656,165.5999984741211)" opacity="1.0"><path id="ProcessOnPath1010" d="M0.0 0.0L151.09999084472656 0.0L151.09999084472656 41.400001525878906L0.0 41.400001525878906Z" stroke="#323232" stroke-width="2.0" stroke-dasharray="none" opacity="1.0" fill="#ffffff"/><g id="ProcessOnG1011" transform="matrix(1.0,0.0,0.0,1.0,10.0,3.200000762939453)"><text id="ProcessOnText1012" fill="#000000" font-size="14" x="64.54999542236328" y="14.350000000000001" font-family="宋体" font-weight="normal" font-style="normal" text-decoration="none" family="宋体" text-anchor="middle" size="14">收到客户端的命令请</text><text id="ProcessOnText1013" fill="#000000" font-size="14" x="64.54999542236328" y="31.85" font-family="宋体" font-weight="normal" font-style="normal" text-decoration="none" family="宋体" text-anchor="middle" size="14">求</text></g></g><g id="ProcessOnG1014"><path id="ProcessOnPath1015" d="M501.2999954223633 135.5999984741211L501.2999954223633 150.5999984741211L501.14998626708984 150.5999984741211L501.14998626708984 151.5999984741211" stroke="#323232" stroke-width="2.0" stroke-dasharray="none" fill="none" marker-end="url(#ProcessOnMarker1016)"/></g><g id="ProcessOnG1018" transform="matrix(1.0,0.0,0.0,1.0,393.59999084472656,224.5999984741211)" opacity="1.0"><path id="ProcessOnPath1019" d="M0.0 35.70000076293945L110.20000457763672 0.0L220.40000915527344 35.70000076293945L110.20000457763672 71.4000015258789L0.0 35.70000076293945Z" stroke="#323232" stroke-width="2.0" stroke-dasharray="none" opacity="1.0" fill="#ffffff"/><g id="ProcessOnG1020" transform="matrix(1.0,0.0,0.0,1.0,10.0,26.950000762939453)"><text id="ProcessOnText1021" fill="#000000" font-size="14" x="99.20000457763672" y="14.350000000000001" font-family="宋体" font-weight="normal" font-style="normal" text-decoration="none" family="宋体" text-anchor="middle" size="14">当前服务器节点处于复制状态</text></g></g><g id="ProcessOnG1022" transform="matrix(1.0,0.0,0.0,1.0,646.0999908447266,331.5999984741211)" opacity="1.0"><path id="ProcessOnPath1023" d="M0.0 0.0L90.90000915527344 0.0L90.90000915527344 44.400001525878906L0.0 44.400001525878906Z" stroke="#323232" stroke-width="2.0" stroke-dasharray="none" opacity="1.0" fill="#ffffff"/><g id="ProcessOnG1024" transform="matrix(1.0,0.0,0.0,1.0,10.0,-4.049999237060547)"><text id="ProcessOnText1025" fill="#000000" font-size="14" x="34.45000457763672" y="14.350000000000001" font-family="宋体" font-weight="normal" font-style="normal" text-decoration="none" family="宋体" text-anchor="middle" size="14">获取集群</text><text id="ProcessOnText1026" fill="#000000" font-size="14" x="34.45000457763672" y="31.85" font-family="宋体" font-weight="normal" font-style="normal" text-decoration="none" family="宋体" text-anchor="middle" size="14">日志序列</text><text id="ProcessOnText1027" fill="#000000" font-size="14" x="34.45000457763672" y="49.35" font-family="宋体" font-weight="normal" font-style="normal" text-decoration="none" family="宋体" text-anchor="middle" size="14">号</text></g></g><g id="ProcessOnG1028" transform="matrix(1.0,0.0,0.0,1.0,626.0999908447266,440.5999984741211)" opacity="1.0"><path id="ProcessOnPath1029" d="M0.0 0.0L130.90000915527344 0.0L130.90000915527344 49.400001525878906L0.0 49.400001525878906Z" stroke="#323232" stroke-width="2.0" stroke-dasharray="none" opacity="1.0" fill="#ffffff"/><g id="ProcessOnG1030" transform="matrix(1.0,0.0,0.0,1.0,10.0,7.200000762939453)"><text id="ProcessOnText1031" fill="#000000" font-size="14" x="54.45000457763672" y="14.350000000000001" font-family="宋体" font-weight="normal" font-style="normal" text-decoration="none" family="宋体" text-anchor="middle" size="14">在本地队列里面</text><text id="ProcessOnText1032" fill="#000000" font-size="14" x="54.45000457763672" y="31.85" font-family="宋体" font-weight="normal" font-style="normal" text-decoration="none" family="宋体" text-anchor="middle" size="14">暂存命令请求</text></g></g><g id="ProcessOnG1033" transform="matrix(1.0,0.0,0.0,1.0,424.4999885559082,338.89999771118164)" opacity="1.0"><path id="ProcessOnPath1034" d="M0.0 0.0L157.70000457763672 0.0L157.70000457763672 47.400001525878906L0.0 47.400001525878906Z" stroke="#323232" stroke-width="2.0" stroke-dasharray="none" opacity="1.0" fill="#ffffff"/><g id="ProcessOnG1035" transform="matrix(1.0,0.0,0.0,1.0,10.0,14.950000762939453)"><text id="ProcessOnText1036" fill="#000000" font-size="14" x="67.85000228881836" y="14.350000000000001" font-family="宋体" font-weight="normal" font-style="normal" text-decoration="none" family="宋体" text-anchor="middle" size="14">本地日志序列号增加1</text></g></g><g id="ProcessOnG1037" transform="matrix(1.0,0.0,0.0,1.0,425.39999771118164,408.5999984741211)" opacity="1.0"><path id="ProcessOnPath1038" d="M0.0 0.0L156.79999542236328 0.0L156.79999542236328 49.400001525878906L0.0 49.400001525878906Z" stroke="#323232" stroke-width="2.0" stroke-dasharray="none" opacity="1.0" fill="#ffffff"/><g id="ProcessOnG1039" transform="matrix(1.0,0.0,0.0,1.0,10.0,15.950000762939453)"><text id="ProcessOnText1040" fill="#000000" font-size="14" x="67.39999771118164" y="14.350000000000001" font-family="宋体" font-weight="normal" font-style="normal" text-decoration="none" family="宋体" text-anchor="middle" size="14">集群日志序列增加1</text></g></g><g id="ProcessOnG1041" transform="matrix(1.0,0.0,0.0,1.0,425.39999771118164,481.5999984741211)" opacity="1.0"><path id="ProcessOnPath1042" d="M0.0 0.0L156.79999542236328 0.0L156.79999542236328 48.0L0.0 48.0Z" stroke="#323232" stroke-width="2.0" stroke-dasharray="none" opacity="1.0" fill="#ffffff"/><g id="ProcessOnG1043" transform="matrix(1.0,0.0,0.0,1.0,10.0,15.25)"><text id="ProcessOnText1044" fill="#000000" font-size="14" x="67.39999771118164" y="14.350000000000001" font-family="宋体" font-weight="normal" font-style="normal" text-decoration="none" family="宋体" text-anchor="middle" size="14">保存本地日志记录</text></g></g><g id="ProcessOnG1045" transform="matrix(1.0,0.0,0.0,1.0,422.89999771118164,554.5999984741211)" opacity="1.0"><path id="ProcessOnPath1046" d="M0.0 0.0L161.79999542236328 0.0L161.79999542236328 37.400001525878906L0.0 37.400001525878906Z" stroke="#323232" stroke-width="2.0" stroke-dasharray="none" opacity="1.0" fill="#ffffff"/><g id="ProcessOnG1047" transform="matrix(1.0,0.0,0.0,1.0,10.0,9.950000762939453)"><text id="ProcessOnText1048" fill="#000000" font-size="14" x="69.89999771118164" y="14.350000000000001" font-family="宋体" font-weight="normal" font-style="normal" text-decoration="none" family="宋体" text-anchor="middle" size="14">执行命令请求</text></g></g><g id="ProcessOnG1049" transform="matrix(1.0,0.0,0.0,1.0,415.4999942779541,619.5999984741211)" opacity="1.0"><path id="ProcessOnPath1050" d="M0.0 0.0L176.60000228881836 0.0L176.60000228881836 48.400001525878906L0.0 48.400001525878906Z" stroke="#323232" stroke-width="2.0" stroke-dasharray="none" opacity="1.0" fill="#ffffff"/><g id="ProcessOnG1051" transform="matrix(1.0,0.0,0.0,1.0,10.0,15.450000762939453)"><text id="ProcessOnText1052" fill="#000000" font-size="14" x="77.30000114440918" y="14.350000000000001" font-family="宋体" font-weight="normal" font-style="normal" text-decoration="none" family="宋体" text-anchor="middle" size="14">发送操作日志到远程队列</text></g></g><g id="ProcessOnG1053" transform="matrix(1.0,0.0,0.0,1.0,641.5499954223633,618.7999992370605)" opacity="1.0"><path id="ProcessOnPath1054" d="M16.666666666666668 0.0L83.33333333333333 0.0C105.55555555555556 0.0 105.55555555555556 50.0 83.33333333333333 50.0L16.666666666666668 50.0C-5.555555555555556 50.0 -5.555555555555556 0.0 16.666666666666668 0.0Z" stroke="#323232" stroke-width="2.0" stroke-dasharray="none" opacity="1.0" fill="#ffffff"/><g id="ProcessOnG1055" transform="matrix(1.0,0.0,0.0,1.0,10.0,16.25)"><text id="ProcessOnText1056" fill="#000000" font-size="14" x="39.0" y="14.350000000000001" font-family="宋体" font-weight="normal" font-style="normal" text-decoration="none" family="宋体" text-anchor="middle" size="14">执行结束</text></g></g><g id="ProcessOnG1057"><path id="ProcessOnPath1058" d="M501.14998626708984 207.0L501.14998626708984 215.79999923706055L503.7999954223633 215.79999923706055L503.7999954223633 216.79999923706055" stroke="#323232" stroke-width="2.0" stroke-dasharray="none" fill="none" marker-end="url(#ProcessOnMarker1059)"/></g><g id="ProcessOnG1061"><path id="ProcessOnPath1062" d="M503.7999954223633 296.0L503.7999954223633 317.4499988555908L503.34999084472656 317.4499988555908L503.34999084472656 323.66392973368187" stroke="#323232" stroke-width="2.0" stroke-dasharray="none" fill="none" marker-end="url(#ProcessOnMarker1063)"/><g id="ProcessOnG1065" transform="matrix(1.0,0.0,0.0,1.0,503.7999954223633,301.3069671556593)"><path id="ProcessOnPath1066" d="M0 0H14.0V17.5H0Z" fill="#fff" transform="matrix(1.0,0.0,0.0,1.0,-7.0,0.0)"/><text id="ProcessOnText1067" fill="#000000" font-size="14" x="0.0" y="14.350000000000001" font-family="宋体" font-weight="normal" font-style="normal" text-decoration="none" family="宋体" text-anchor="middle" size="14">否</text></g></g><g id="ProcessOnG1068"><path id="ProcessOnPath1069" d="M614.0 260.29999923706055L691.5499954223633 260.29999923706055L691.5499954223633 316.3639304966213" stroke="#323232" stroke-width="2.0" stroke-dasharray="none" fill="none" marker-end="url(#ProcessOnMarker1070)"/><g id="ProcessOnG1072" transform="matrix(1.0,0.0,0.0,1.0,680.806963340962,251.54999923706055)"><path id="ProcessOnPath1073" d="M0 0H14.0V17.5H0Z" fill="#fff" transform="matrix(1.0,0.0,0.0,1.0,-7.0,0.0)"/><text id="ProcessOnText1074" fill="#000000" font-size="14" x="0.0" y="14.350000000000001" font-family="宋体" font-weight="normal" font-style="normal" text-decoration="none" family="宋体" text-anchor="middle" size="14">是</text></g></g><g id="ProcessOnG1075"><path id="ProcessOnPath1076" d="M691.5499954223633 376.0L691.5499954223633 408.29999923706055L691.5499954223633 408.29999923706055L691.5499954223633 425.3639304966213" stroke="#323232" stroke-width="2.0" stroke-dasharray="none" fill="none" marker-end="url(#ProcessOnMarker1077)"/></g><g id="ProcessOnG1079"><path id="ProcessOnPath1080" d="M691.5499954223633 490.0L691.5499954223633 554.3999996185303L691.5499954223633 554.3999996185303L691.5499954223633 603.5639312595607" stroke="#323232" stroke-width="2.0" stroke-dasharray="none" fill="none" marker-end="url(#ProcessOnMarker1081)"/></g><g id="ProcessOnG1083"><path id="ProcessOnPath1084" d="M503.34999084472656 386.29999923706055L503.34999084472656 397.4499988555908L503.7999954223633 397.4499988555908L503.7999954223633 398.4499988555908" stroke="#323232" stroke-width="2.0" stroke-dasharray="none" fill="none" marker-end="url(#ProcessOnMarker1085)"/></g><g id="ProcessOnG1087"><path id="ProcessOnPath1088" d="M503.7999954223633 458.0L503.7999954223633 469.79999923706055L503.7999954223633 469.79999923706055L503.7999954223633 470.79999923706055" stroke="#323232" stroke-width="2.0" stroke-dasharray="none" fill="none" marker-end="url(#ProcessOnMarker1089)"/></g><g id="ProcessOnG1091"><path id="ProcessOnPath1092" d="M503.7999954223633 529.5999984741211L503.7999954223633 542.0999984741211L503.7999954223633 542.0999984741211L503.7999954223633 543.0999984741211" stroke="#323232" stroke-width="2.0" stroke-dasharray="none" fill="none" marker-end="url(#ProcessOnMarker1093)"/></g><g id="ProcessOnG1095"><path id="ProcessOnPath1096" d="M503.7999954223633 592.0L503.7999954223633 605.7999992370605L503.7999954223633 605.7999992370605L503.7999954223633 606.7999992370605" stroke="#323232" stroke-width="2.0" stroke-dasharray="none" fill="none" marker-end="url(#ProcessOnMarker1097)"/></g><g id="ProcessOnG1099"><path id="ProcessOnPath1100" d="M592.0999965667725 643.7999992370605L616.8249959945679 643.7999992370605L616.8249959945679 643.7999992370605L626.3139274448635 643.7999992370605" stroke="#323232" stroke-width="2.0" stroke-dasharray="none" fill="none" marker-end="url(#ProcessOnMarker1101)"/></g></g></g></svg>