<svg xmlns="http://www.w3.org/2000/svg" xmlns:xlink="http://www.w3.org/1999/xlink" id="processonSvg1000" viewBox="228.59999084472656 -5.0 416.0 558.7999992370605" width="416.0" height="558.7999992370605"><defs id="ProcessOnDefs1001"><marker id="ProcessOnMarker1039" markerUnits="userSpaceOnUse" orient="auto" markerWidth="16.23606797749979" markerHeight="10.550836550532098" viewBox="-1.0 -1.3763819204711736 16.23606797749979 10.550836550532098" refX="-1.0" refY="3.8990363547948754"><path id="ProcessOnPath1040" d="M12.0 3.8990363547948754L0.0 7.798072709589751V0.0Z" stroke="#323232" stroke-width="2.0" fill="#323232" transform="matrix(1.0,0.0,0.0,1.0,0.0,0.0)"/></marker><marker id="ProcessOnMarker1043" markerUnits="userSpaceOnUse" orient="auto" markerWidth="16.23606797749979" markerHeight="10.550836550532098" viewBox="-1.0 -1.3763819204711736 16.23606797749979 10.550836550532098" refX="-1.0" refY="3.8990363547948754"><path id="ProcessOnPath1044" d="M12.0 3.8990363547948754L0.0 7.798072709589751V0.0Z" stroke="#323232" stroke-width="2.0" fill="#323232" transform="matrix(1.0,0.0,0.0,1.0,0.0,0.0)"/></marker><marker id="ProcessOnMarker1058" markerUnits="userSpaceOnUse" orient="auto" markerWidth="16.23606797749979" markerHeight="10.550836550532098" viewBox="-1.0 -1.3763819204711736 16.23606797749979 10.550836550532098" refX="-1.0" refY="3.8990363547948754"><path id="ProcessOnPath1059" d="M12.0 3.8990363547948754L0.0 7.798072709589751V0.0Z" stroke="#323232" stroke-width="2.0" fill="#323232" transform="matrix(1.0,0.0,0.0,1.0,0.0,0.0)"/></marker><marker id="ProcessOnMarker1062" markerUnits="userSpaceOnUse" orient="auto" markerWidth="16.23606797749979" markerHeight="10.550836550532098" viewBox="-1.0 -1.3763819204711736 16.23606797749979 10.550836550532098" refX="-1.0" refY="3.8990363547948754"><path id="ProcessOnPath1063" d="M12.0 3.8990363547948754L0.0 7.798072709589751V0.0Z" stroke="#323232" stroke-width="2.0" fill="#323232" transform="matrix(1.0,0.0,0.0,1.0,0.0,0.0)"/></marker><marker id="ProcessOnMarker1066" markerUnits="userSpaceOnUse" orient="auto" markerWidth="16.23606797749979" markerHeight="10.550836550532098" viewBox="-1.0 -1.3763819204711736 16.23606797749979 10.550836550532098" refX="-1.0" refY="3.8990363547948754"><path id="ProcessOnPath1067" d="M12.0 3.8990363547948754L0.0 7.798072709589751V0.0Z" stroke="#323232" stroke-width="2.0" fill="#323232" transform="matrix(1.0,0.0,0.0,1.0,0.0,0.0)"/></marker><marker id="ProcessOnMarker1070" markerUnits="userSpaceOnUse" orient="auto" markerWidth="16.23606797749979" markerHeight="10.550836550532098" viewBox="-1.0 -1.3763819204711736 16.23606797749979 10.550836550532098" refX="-1.0" refY="3.8990363547948754"><path id="ProcessOnPath1071" d="M12.0 3.8990363547948754L0.0 7.798072709589751V0.0Z" stroke="#323232" stroke-width="2.0" fill="#323232" transform="matrix(1.0,0.0,0.0,1.0,0.0,0.0)"/></marker><marker id="ProcessOnMarker1077" markerUnits="userSpaceOnUse" orient="auto" markerWidth="16.23606797749979" markerHeight="10.550836550532098" viewBox="-1.0 -1.3763819204711736 16.23606797749979 10.550836550532098" refX="-1.0" refY="3.8990363547948754"><path id="ProcessOnPath1078" d="M12.0 3.8990363547948754L0.0 7.798072709589751V0.0Z" stroke="#323232" stroke-width="2.0" fill="#323232" transform="matrix(1.0,0.0,0.0,1.0,0.0,0.0)"/></marker><marker id="ProcessOnMarker1084" markerUnits="userSpaceOnUse" orient="auto" markerWidth="16.23606797749979" markerHeight="10.550836550532098" viewBox="-1.0 -1.3763819204711736 16.23606797749979 10.550836550532098" refX="-1.0" refY="3.8990363547948754"><path id="ProcessOnPath1085" d="M12.0 3.8990363547948754L0.0 7.798072709589751V0.0Z" stroke="#323232" stroke-width="2.0" fill="#323232" transform="matrix(1.0,0.0,0.0,1.0,0.0,0.0)"/></marker><marker id="ProcessOnMarker1091" markerUnits="userSpaceOnUse" orient="auto" markerWidth="16.23606797749979" markerHeight="10.550836550532098" viewBox="-1.0 -1.3763819204711736 16.23606797749979 10.550836550532098" refX="-1.0" refY="3.8990363547948754"><path id="ProcessOnPath1092" d="M12.0 3.8990363547948754L0.0 7.798072709589751V0.0Z" stroke="#323232" stroke-width="2.0" fill="#323232" transform="matrix(1.0,0.0,0.0,1.0,0.0,0.0)"/></marker><marker id="ProcessOnMarker1098" markerUnits="userSpaceOnUse" orient="auto" markerWidth="16.23606797749979" markerHeight="10.550836550532098" viewBox="-1.0 -1.3763819204711736 16.23606797749979 10.550836550532098" refX="-1.0" refY="3.8990363547948754"><path id="ProcessOnPath1099" d="M12.0 3.8990363547948754L0.0 7.798072709589751V0.0Z" stroke="#323232" stroke-width="2.0" fill="#323232" transform="matrix(1.0,0.0,0.0,1.0,0.0,0.0)"/></marker></defs><g id="ProcessOnG1002"><path id="ProcessOnPath1003" d="M228.59999084472656 -5.0H644.5999908447266V553.7999992370605H228.59999084472656V-5.0Z" fill="none"/><g id="ProcessOnG1004"><g id="ProcessOnG1005" transform="matrix(1.0,0.0,0.0,1.0,378.0499954223633,15.0)" opacity="1.0"><path id="ProcessOnPath1006" d="M16.666666666666668 0.0L83.33333333333333 0.0C105.55555555555556 0.0 105.55555555555556 50.0 83.33333333333333 50.0L16.666666666666668 50.0C-5.555555555555556 50.0 -5.555555555555556 0.0 16.666666666666668 0.0Z" stroke="#323232" stroke-width="2.0" stroke-dasharray="none" opacity="1.0" fill="#ffffff"/><g id="ProcessOnG1007" transform="matrix(1.0,0.0,0.0,1.0,10.0,16.25)"><text id="ProcessOnText1008" fill="#000000" font-size="14" x="39.0" y="14.350000000000001" font-family="宋体" font-weight="normal" font-style="normal" text-decoration="none" family="宋体" text-anchor="middle" size="14">开始</text></g></g><g id="ProcessOnG1009" transform="matrix(1.0,0.0,0.0,1.0,364.0,89.0)" opacity="1.0"><path id="ProcessOnPath1010" d="M0.0 0.0L128.09999084472656 0.0L128.09999084472656 47.59999084472656L0.0 47.59999084472656Z" stroke="#323232" stroke-width="2.0" stroke-dasharray="none" opacity="1.0" fill="#ffffff"/><g id="ProcessOnG1011" transform="matrix(1.0,0.0,0.0,1.0,10.0,6.299995422363281)"><text id="ProcessOnText1012" fill="#000000" font-size="14" x="53.04999542236328" y="14.350000000000001" font-family="宋体" font-weight="normal" font-style="normal" text-decoration="none" family="宋体" text-anchor="middle" size="14">获取当前服务器</text><text id="ProcessOnText1013" fill="#000000" font-size="14" x="53.04999542236328" y="31.85" font-family="宋体" font-weight="normal" font-style="normal" text-decoration="none" family="宋体" text-anchor="middle" size="14">本地日志序列号L</text></g></g><g id="ProcessOnG1014" transform="matrix(1.0,0.0,0.0,1.0,367.5,157.90000915527344)" opacity="1.0"><path id="ProcessOnPath1015" d="M0.0 0.0L121.09999084472656 0.0L121.09999084472656 43.699989318847656L0.0 43.699989318847656Z" stroke="#323232" stroke-width="2.0" stroke-dasharray="none" opacity="1.0" fill="#ffffff"/><g id="ProcessOnG1016" transform="matrix(1.0,0.0,0.0,1.0,10.0,4.349994659423828)"><text id="ProcessOnText1017" fill="#000000" font-size="14" x="49.54999542236328" y="14.350000000000001" font-family="宋体" font-weight="normal" font-style="normal" text-decoration="none" family="宋体" text-anchor="middle" size="14">得到当前集群的</text><text id="ProcessOnText1018" fill="#000000" font-size="14" x="49.54999542236328" y="31.85" font-family="宋体" font-weight="normal" font-style="normal" text-decoration="none" family="宋体" text-anchor="middle" size="14">日志序列号R</text></g></g><g id="ProcessOnG1019" transform="matrix(1.0,0.0,0.0,1.0,378.0499954223633,483.0)" opacity="1.0"><path id="ProcessOnPath1020" d="M16.666666666666668 0.0L83.33333333333333 0.0C105.55555555555556 0.0 105.55555555555556 50.0 83.33333333333333 50.0L16.666666666666668 50.0C-5.555555555555556 50.0 -5.555555555555556 0.0 16.666666666666668 0.0Z" stroke="#323232" stroke-width="2.0" stroke-dasharray="none" opacity="1.0" fill="#ffffff"/><g id="ProcessOnG1021" transform="matrix(1.0,0.0,0.0,1.0,10.0,16.25)"><text id="ProcessOnText1022" fill="#000000" font-size="14" x="39.0" y="14.350000000000001" font-family="宋体" font-weight="normal" font-style="normal" text-decoration="none" family="宋体" text-anchor="middle" size="14">结束</text></g></g><g id="ProcessOnG1023" transform="matrix(1.0,0.0,0.0,1.0,367.5,242.0)" opacity="1.0"><path id="ProcessOnPath1024" d="M0.0 27.799999237060547L60.54999542236328 0.0L121.09999084472656 27.799999237060547L60.54999542236328 55.599998474121094L0.0 27.799999237060547Z" stroke="#323232" stroke-width="2.0" stroke-dasharray="none" opacity="1.0" fill="#ffffff"/><g id="ProcessOnG1025" transform="matrix(1.0,0.0,0.0,1.0,10.0,19.049999237060547)"><text id="ProcessOnText1026" fill="#000000" font-size="14" x="49.54999542236328" y="14.350000000000001" font-family="Times New Roman" font-weight="normal" font-style="normal" text-decoration="none" family="Times New Roman" text-anchor="middle" size="14">R&gt;L</text></g></g><g id="ProcessOnG1027" transform="matrix(1.0,0.0,0.0,1.0,524.0,246.39999961853027)" opacity="1.0"><path id="ProcessOnPath1028" d="M0.0 0.0L100.59999084472656 0.0L100.59999084472656 46.79999923706055L0.0 46.79999923706055Z" stroke="#323232" stroke-width="2.0" stroke-dasharray="none" opacity="1.0" fill="#ffffff"/><g id="ProcessOnG1029" transform="matrix(1.0,0.0,0.0,1.0,10.0,5.899999618530273)"><text id="ProcessOnText1030" fill="#000000" font-size="14" x="39.29999542236328" y="14.350000000000001" font-family="宋体" font-weight="normal" font-style="normal" text-decoration="none" family="宋体" text-anchor="middle" size="14">开始复制阶</text><text id="ProcessOnText1031" fill="#000000" font-size="14" x="39.29999542236328" y="31.85" font-family="宋体" font-weight="normal" font-style="normal" text-decoration="none" family="宋体" text-anchor="middle" size="14">段</text></g></g><g id="ProcessOnG1032" transform="matrix(1.0,0.0,0.0,1.0,544.0,482.20000076293945)" opacity="1.0"><path id="ProcessOnPath1033" d="M0.0 0.0L76.59999084472656 0.0L76.59999084472656 51.599998474121094L0.0 51.599998474121094Z" stroke="#323232" stroke-width="2.0" stroke-dasharray="none" opacity="1.0" fill="#ffffff"/><g id="ProcessOnG1034" transform="matrix(1.0,0.0,0.0,1.0,10.0,8.299999237060547)"><text id="ProcessOnText1035" fill="#000000" font-size="14" x="27.29999542236328" y="14.350000000000001" font-family="宋体" font-weight="normal" font-style="normal" text-decoration="none" family="宋体" text-anchor="middle" size="14">复制完</text><text id="ProcessOnText1036" fill="#000000" font-size="14" x="27.29999542236328" y="31.85" font-family="宋体" font-weight="normal" font-style="normal" text-decoration="none" family="宋体" text-anchor="middle" size="14">成</text></g></g><g id="ProcessOnG1037"><path id="ProcessOnPath1038" d="M544.0 508.0L511.02499771118164 508.0L511.02499771118164 508.0L493.28606339986305 508.0" stroke="#323232" stroke-width="2.0" stroke-dasharray="none" fill="none" marker-end="url(#ProcessOnMarker1039)"/></g><g id="ProcessOnG1041"><path id="ProcessOnPath1042" d="M574.2999954223633 293.1999988555908L574.2999954223633 387.69999980926514L574.6399963378906 387.69999980926514L574.6399963378906 466.9639327854397" stroke="#323232" stroke-width="2.0" stroke-dasharray="none" fill="none" marker-end="url(#ProcessOnMarker1043)"/></g><g id="ProcessOnG1045" transform="matrix(1.0,0.0,0.0,1.0,367.5,348.5999984741211)" opacity="1.0"><path id="ProcessOnPath1046" d="M0.0 30.0L60.54999542236328 0.0L121.09999084472656 30.0L60.54999542236328 60.0L0.0 30.0Z" stroke="#323232" stroke-width="2.0" stroke-dasharray="none" opacity="1.0" fill="#ffffff"/><g id="ProcessOnG1047" transform="matrix(1.0,0.0,0.0,1.0,10.0,21.25)"><text id="ProcessOnText1048" fill="#000000" font-size="14" x="49.54999542236328" y="14.350000000000001" font-family="Times New Roman" font-weight="normal" font-style="normal" text-decoration="none" family="Times New Roman" text-anchor="middle" size="14">R=L</text></g></g><g id="ProcessOnG1049" transform="matrix(1.0,0.0,0.0,1.0,248.59999084472656,346.8499975204468)" opacity="1.0"><path id="ProcessOnPath1050" d="M0.0 0.0L82.0 0.0L82.0 73.75000286102295L0.0 73.75000286102295Z" stroke="#323232" stroke-width="2.0" stroke-dasharray="none" opacity="1.0" fill="#ffffff"/><g id="ProcessOnG1051" transform="matrix(1.0,0.0,0.0,1.0,10.0,1.8750014305114746)"><text id="ProcessOnText1052" fill="#000000" font-size="14" x="30.0" y="14.350000000000001" font-family="宋体" font-weight="normal" font-style="normal" text-decoration="none" family="宋体" text-anchor="middle" size="14">主节点设</text><text id="ProcessOnText1053" fill="#000000" font-size="14" x="30.0" y="31.85" font-family="宋体" font-weight="normal" font-style="normal" text-decoration="none" family="宋体" text-anchor="middle" size="14">置集群</text><text id="ProcessOnText1054" fill="#000000" font-size="14" x="30.0" y="49.35" font-family="宋体" font-weight="normal" font-style="normal" text-decoration="none" family="宋体" text-anchor="middle" size="14">日志序列</text><text id="ProcessOnText1055" fill="#000000" font-size="14" x="30.0" y="66.85" font-family="宋体" font-weight="normal" font-style="normal" text-decoration="none" family="宋体" text-anchor="middle" size="14">号</text></g></g><g id="ProcessOnG1056"><path id="ProcessOnPath1057" d="M428.0499954223633 65.0L428.0499954223633 77.0L428.0499954223633 77.0L428.0499954223633 78.0" stroke="#323232" stroke-width="2.0" stroke-dasharray="none" fill="none" marker-end="url(#ProcessOnMarker1058)"/></g><g id="ProcessOnG1060"><path id="ProcessOnPath1061" d="M428.0499954223633 136.59999084472656L428.0499954223633 147.25L428.0499954223633 147.25L428.0499954223633 148.25" stroke="#323232" stroke-width="2.0" stroke-dasharray="none" fill="none" marker-end="url(#ProcessOnMarker1062)"/></g><g id="ProcessOnG1064"><path id="ProcessOnPath1065" d="M428.0499954223633 201.5999984741211L428.0499954223633 221.79999923706055L428.0499954223633 221.79999923706055L428.0499954223633 226.7639320225002" stroke="#323232" stroke-width="2.0" stroke-dasharray="none" fill="none" marker-end="url(#ProcessOnMarker1066)"/></g><g id="ProcessOnG1068"><path id="ProcessOnPath1069" d="M488.59999084472656 269.79999923706055L506.2999954223633 269.79999923706055L506.2999954223633 269.79999923706055L508.7639320225002 269.79999923706055" stroke="#323232" stroke-width="2.0" stroke-dasharray="none" fill="none" marker-end="url(#ProcessOnMarker1070)"/><g id="ProcessOnG1072" transform="matrix(1.0,0.0,0.0,1.0,498.6819614336134,261.04999923706055)"><path id="ProcessOnPath1073" d="M0 0H14.0V17.5H0Z" fill="#fff" transform="matrix(1.0,0.0,0.0,1.0,-7.0,0.0)"/><text id="ProcessOnText1074" fill="#000000" font-size="14" x="0.0" y="14.350000000000001" font-family="宋体" font-weight="normal" font-style="normal" text-decoration="none" family="宋体" text-anchor="middle" size="14">是</text></g></g><g id="ProcessOnG1075"><path id="ProcessOnPath1076" d="M428.0499954223633 297.5999984741211L428.0499954223633 323.0999984741211L428.0499954223633 323.0999984741211L428.0499954223633 333.3639304966213" stroke="#323232" stroke-width="2.0" stroke-dasharray="none" fill="none" marker-end="url(#ProcessOnMarker1077)"/><g id="ProcessOnG1079" transform="matrix(1.0,0.0,0.0,1.0,428.0499954223633,306.73196448537124)"><path id="ProcessOnPath1080" d="M0 0H14.0V17.5H0Z" fill="#fff" transform="matrix(1.0,0.0,0.0,1.0,-7.0,0.0)"/><text id="ProcessOnText1081" fill="#000000" font-size="14" x="0.0" y="14.350000000000001" font-family="宋体" font-weight="normal" font-style="normal" text-decoration="none" family="宋体" text-anchor="middle" size="14">否</text></g></g><g id="ProcessOnG1082"><path id="ProcessOnPath1083" d="M428.0499954223633 408.5999984741211L428.0499954223633 445.79999923706055L428.0499954223633 445.79999923706055L428.0499954223633 467.7639320225002" stroke="#323232" stroke-width="2.0" stroke-dasharray="none" fill="none" marker-end="url(#ProcessOnMarker1084)"/><g id="ProcessOnG1086" transform="matrix(1.0,0.0,0.0,1.0,428.0499954223633,429.4319652483107)"><path id="ProcessOnPath1087" d="M0 0H14.0V17.5H0Z" fill="#fff" transform="matrix(1.0,0.0,0.0,1.0,-7.0,0.0)"/><text id="ProcessOnText1088" fill="#000000" font-size="14" x="0.0" y="14.350000000000001" font-family="宋体" font-weight="normal" font-style="normal" text-decoration="none" family="宋体" text-anchor="middle" size="14">是</text></g></g><g id="ProcessOnG1089"><path id="ProcessOnPath1090" d="M367.5 378.5999984741211L349.0499954223633 378.5999984741211L349.0499954223633 383.72499895095825L345.83605882222633 383.72499895095825" stroke="#323232" stroke-width="2.0" stroke-dasharray="none" fill="none" marker-end="url(#ProcessOnMarker1091)"/><g id="ProcessOnG1093" transform="matrix(1.0,0.0,0.0,1.0,354.10552917269456,369.8499984741211)"><path id="ProcessOnPath1094" d="M0 0H14.0V17.5H0Z" fill="#fff" transform="matrix(1.0,0.0,0.0,1.0,-7.0,0.0)"/><text id="ProcessOnText1095" fill="#000000" font-size="14" x="0.0" y="14.350000000000001" font-family="宋体" font-weight="normal" font-style="normal" text-decoration="none" family="宋体" text-anchor="middle" size="14">否</text></g></g><g id="ProcessOnG1096"><path id="ProcessOnPath1097" d="M289.59999084472656 420.6000003814697L289.59999084472656 508.0L362.8139274448635 508.0" stroke="#323232" stroke-width="2.0" stroke-dasharray="none" fill="none" marker-end="url(#ProcessOnMarker1098)"/></g></g></g></svg>